<svg width="1152" height="946" viewBox="0 0 1152 946" fill="none" xmlns="http://www.w3.org/2000/svg">
<path d="M20.2626 265.393C20.7143 265.49 21.2305 266.039 22.0371 266.039C24.2311 266.103 27.7156 263.683 26.5864 267.781C26.4251 268.329 20.1335 269.394 18.8752 269.588L16.0683 268.878C15.8101 267.878 16.4877 267.458 16.7781 266.781C18.6494 266.652 20.7788 267.587 20.2626 265.393Z" fill="#FCC146"/>
<path d="M17.4872 264.716C17.4872 265.49 17.0677 266.135 16.7774 266.813C15.0351 266.942 13.551 266.071 13.9704 268.2C9.06623 267.168 3.58132 270.782 0 266.813V266.103C3.35547 262.361 12.7443 263.974 17.4549 264.716H17.4872Z" fill="#FCC146"/>
<path d="M530.423 136.305C518.518 91.4251 486.286 52.8372 445.052 30.833C440.6 28.4455 429.662 24.7674 426.468 22.1862C420.758 17.5725 421.661 3.92471 429.243 1.27905C441.407 -2.94755 463.637 4.27962 475.478 8.76434C520.357 25.7675 555.17 62.2906 581.368 101.395C583.014 103.847 583.885 107.073 586.24 109.074C585.918 107.009 573.786 80.1004 568.656 69.7759C566.656 65.7751 564.43 61.9679 562.494 58.2898C558.751 51.2562 548.201 32.8011 561.074 29.8006C567.366 28.3487 574.399 33.9949 578.561 38.2215C591.37 51.3208 608.277 73.4217 618.924 88.5859C639.218 117.527 653.318 150.114 664.578 183.539C672.45 185.959 682.065 187.605 688.808 192.476C690.905 193.993 696.39 199.058 696.519 201.543C696.81 206.673 692.583 206.285 689.55 207.802C689.97 209.931 691.486 211.383 693.261 212.48C710.199 222.869 738.269 233.194 757.434 239.034C761.983 240.421 769.727 241.518 773.502 243.228C779.148 245.777 771.082 250.939 768.017 252.036C765.177 253.068 753.853 256.585 751.271 256.908C744.561 257.779 731.139 257.456 724.105 257.005C719.653 256.714 714.942 255.553 710.522 254.875C711.232 258.424 713.329 261.554 713.813 265.168C715.039 274.395 713.458 281.977 713.264 290.785C713.2 294.56 713.006 304.143 713.426 307.369C713.845 310.595 716.846 316.113 717.975 319.629C726.686 346.86 734.655 374.188 744.883 400.903C755.143 427.779 769.017 448.847 763.371 479.047C762.628 482.951 760.37 487.855 760.08 491.436C759.338 491.694 759.563 492.436 759.37 492.823C758.273 495.211 757.014 497.147 755.885 499.792C755.014 499.696 753.885 499.954 753.078 499.792C750.4 499.244 751.401 497.76 750.304 496.631C747.529 493.759 742.334 486.822 740.173 485.112C732.945 479.402 729.59 486.274 728.654 471.884L729.364 470.497C729.719 470.013 728.428 462.785 732.526 462.076C737.108 461.301 735.978 466.786 736.817 469.658C739.043 477.272 742.237 476.562 746.496 480.918C748.852 483.37 750.239 487.629 752.53 490.242C753.143 490.952 753.207 491.694 754.498 491.404C755.918 484.564 760.628 475.207 760.08 468.367C759.563 454.849 753.691 437.264 751.53 431.199C741.528 403.355 729.977 376.447 720.911 348.764C719.62 344.828 709.715 310.563 709.231 306.046C708.521 299.529 709.618 292.14 709.167 285.526C710.07 285.204 709.844 284.203 709.877 283.429C710.619 266.006 707.941 265.103 702.843 250.326C700.326 243.034 698.778 235.323 695.842 228.193C695.261 226.805 690.938 217.771 690.228 216.9C689.098 215.513 685.646 214.513 685.485 213.222C685.42 212.674 687.776 209.996 686.033 208.867C685.065 208.254 666.61 208.867 663.416 208.802C661.868 208.77 652.608 206.802 652.64 209.125C652.64 209.705 659.803 216.094 660.964 217.513C664.61 221.901 669.288 229.483 670.708 234.968C671.16 236.711 671.256 241.292 671.45 241.55L672.16 242.938C671.547 248.261 676.064 263.877 676.935 270.588C678.322 281.171 678.838 290.914 678.419 301.529C677.193 301.916 676.031 302.368 674.934 301.529C674.805 298.012 674.354 294.592 674.225 291.076C674.225 290.301 674.418 289.333 673.515 288.979C673.579 288.043 673.676 283.623 673.515 283.397L672.805 282.009C672.902 280.719 672.45 271.298 672.095 270.846L671.385 269.459C671.45 268.62 671.547 264.78 671.385 264.587L670.676 263.199C671.095 257.553 669.546 241.808 667.643 236.582C666.288 232.871 659.674 223.289 656.996 220.03C654.318 216.771 649.123 213.868 649.026 209.512C646.929 210.189 636.572 209.705 636.508 211.254C636.443 212.383 643.122 220.901 644.542 222.063C647.091 224.16 656.189 227.225 656.738 228.193C658.867 232.065 655.576 240.744 649.768 240.227C649.414 240.195 648.801 239.647 648.381 239.518C648.252 239.001 647.349 238.775 647.8 237.291C648.188 235.968 651.446 231.419 651.156 230.161C642.767 226.386 633.701 221.837 635.121 210.932C633.669 209.48 624.731 216.029 622.57 216.868C609.729 221.837 594.726 223.095 581.788 226.321C580.981 226.515 576.787 227.58 576.593 227.773C576.335 228.064 576.593 229.645 576.174 230.484C575.722 231.387 574.077 231.742 573.012 233.968C570.334 234.162 570.431 233.323 570.205 231.161C570.044 229.483 570.625 227.225 570.012 225.741C569.85 225.386 565.624 220.482 564.978 219.998C562.946 218.449 555.428 216.416 558.3 212.642C561.655 208.221 580.885 208.673 586.628 208.124C614.439 205.511 640.412 202.188 668.256 203.962C670.676 204.124 678.871 204.382 680.71 203.962C681.904 203.672 684.614 199.155 683.646 196.993C681.678 192.735 662.642 188.605 657.641 187.411C638.573 182.926 615.827 178.183 596.436 176.054C591.145 175.473 587.789 176.28 582.143 174.667C576.497 173.053 574.012 171.343 567.495 170.472C560.235 169.504 552.815 169.601 545.555 169.02C543.716 168.859 542.168 167.633 539.909 167.633C536.328 167.633 520.647 172.15 519.389 167.988C519.034 166.633 519.454 166.342 520.518 165.729C524.551 163.374 536.779 162.245 541.684 162.116C542.458 162.116 543.458 162.309 543.781 161.406C551.201 161.89 560.203 164.632 566.817 164.213L568.205 164.923C568.56 165.213 576.497 165.697 577.271 165.633L578.658 166.342C579.529 167.214 597.049 170.859 599.598 171.214C599.856 171.247 600.63 171.763 601.695 171.924C606.405 172.602 612.019 172.569 617.053 173.312C620.795 173.86 624.925 175.602 628.926 175.409C628.539 174.473 625.893 173.828 624.893 173.537C623.312 173.086 621.279 173.086 619.86 172.634C619.731 172.602 619.311 171.731 617.762 171.247C599.049 165.213 580.885 157.857 562.494 151.501C556.461 149.436 549.879 149.081 543.652 147.307C537.425 145.532 533.392 143.241 526.842 141.919C526.616 141.886 524.584 139.725 523.551 139.144V137.047C523.745 136.853 524.067 136.563 524.261 136.337C524.938 136.369 525.681 136.272 526.358 136.337C527.552 136.434 528.713 136.627 529.843 137.047C529.972 137.079 530.552 136.434 530.552 136.337L530.423 136.305ZM443.891 3.73114H432.373C431.34 3.73114 427.501 6.82849 426.985 8.08679C423.758 16.0238 431.566 20.2504 437.954 21.8636C437.987 17.2821 437.954 13.1522 440.503 9.0547C441.697 7.15112 444.246 6.28 443.891 3.69887V3.73114ZM465.508 8.63528C461.894 8.31264 452.376 4.15057 449.473 5.4734C447.117 6.57038 442.633 12.8296 442.084 15.5398C440.31 24.4124 445.924 27.284 452.925 30.22C452.731 23.3155 456.022 16.7013 460.959 12.0553C462.443 10.6679 464.379 10.0549 465.508 8.60301V8.63528ZM466.218 38.6087C466.863 31.4783 470.315 24.5738 476.058 20.1858C477.962 18.734 480.801 17.8306 482.253 16.6368C483.092 15.9592 483.124 15.9592 482.253 15.2494C481.382 14.5396 470.928 10.6357 470.089 10.7002C468.154 10.8938 462.314 15.9915 461.023 17.7338C458.216 21.5409 455.667 28.6391 457.861 33.1883C458.087 33.6723 465.863 38.9636 466.185 38.6087H466.218ZM501.095 24.6706C493.804 21.5087 491.416 15.9915 482.931 20.0891C476.736 23.0574 471.219 30.3813 470.025 37.1568C469.057 42.5772 469.993 40.5768 473.155 43.1902C475.994 45.5455 478.704 48.1266 481.575 50.4496C483.35 38.6409 491.997 31.1557 501.128 24.6383L501.095 24.6706ZM518.55 39.3185C519.518 38.286 509.936 30.8653 508.806 30.5426C503.289 28.8972 492.803 36.2857 489.641 40.7704C488.222 42.803 484.77 51.1594 485.35 53.3211C486.06 55.9668 493.352 61.1613 495.159 63.7424C495.804 63.7424 498.062 56.7734 498.74 55.4828C502.773 47.4813 509.807 41.4156 518.55 39.3507V39.3185ZM565.301 52.5791C566.14 47.2555 571.625 46.2553 575.271 44.0613C575.916 43.6742 576.69 43.4483 576.464 42.4804C575.98 40.3832 566.753 33.0592 563.655 33.2528C555.073 33.8013 559.042 44.3839 561.687 48.8687C562.171 49.6753 564.398 53.4502 565.301 52.5791ZM539.49 56.7734C539.78 55.7087 539.199 55.6119 538.812 55.0311C537.36 52.934 527.649 43.9645 525.519 43.1902C523.519 42.4804 519.002 43.5774 516.872 44.2549C509.032 46.7392 503.58 53.4502 500.805 60.9677C497.708 69.3241 500.063 69.1306 504.967 75.6157L509.839 80.4875C516.518 69.679 525.713 57.7091 539.49 56.7734ZM589.725 58.8706L584.143 50.8691C580.013 43.8355 571.592 48.3525 568.366 53.9019C564.333 60.7742 571.625 63.5166 573.012 70.034C577.464 65.0008 582.401 59.0641 589.757 58.8706H589.725ZM559.719 79.1002L550.621 66.9044C541.329 52.7404 523.003 69.066 516.969 78.584C512.71 85.3594 512.839 86.1983 516.969 92.8447C517.292 93.3932 516.808 94.0062 518.195 93.7804C519.002 93.6513 526.39 86.9081 528.81 85.5207C537.651 80.3585 549.524 76.874 559.719 79.1002ZM589.564 62.5164C585.885 63.1294 577.948 68.5498 576.787 72.0989C575.496 76.0996 579.271 82.2621 581.723 85.3917C586.079 78.1968 593.597 75.6479 600.888 72.486C597.178 69.0338 595.339 61.5808 589.564 62.5164ZM614.149 90.9411C612.761 88.2309 605.567 77.3579 603.308 76.9708C600.372 76.4545 594.016 79.5519 591.596 81.3264C590.467 82.1653 585.014 87.5211 584.821 88.5213C583.885 93.4577 589.144 101.427 590.435 106.331C596.242 98.2006 603.663 91.5864 614.149 90.9734V90.9411ZM577.852 103.524L560.752 79.81C559.332 79.3583 559.848 80.8102 559.009 81.4877C555.912 84.0688 552.718 82.8428 549.233 83.5849C544.652 84.5528 539.231 86.166 535.069 88.2632C532.23 89.6828 521.841 96.8132 521.518 99.7815C521.131 103.492 527.584 111.429 528.326 115.397L541.329 107.815C548.072 104.75 561.171 101.362 568.431 101.395C571.689 101.395 574.625 103.331 577.852 103.524ZM618.859 96.0389C606.244 91.9091 587.176 107.783 596.049 120.947C597.113 121.721 603.695 114.107 605.179 112.978C610.503 108.912 618.021 106.847 624.667 106.976C625.377 106.299 619.537 97.6843 618.892 96.0066L618.859 96.0389ZM560.978 106.492C556.073 107.009 549.008 109.009 544.394 110.848C541.425 112.042 530.004 117.656 530.52 121.14C530.649 122.044 534.747 132.852 535.263 133.239C536.102 133.82 549.846 129.335 552.589 128.852C562.849 127.109 575.658 126.561 585.692 129.529C589.176 130.561 592.016 132.465 595.307 133.885C590.725 125.915 587.434 112.623 578.561 108.751C572.851 106.267 567.14 105.847 560.978 106.492ZM628.635 112.784C620.763 108.396 599.759 118.527 598.985 127.012C598.759 129.303 601.921 132.917 601.598 135.627C602.018 136.014 610.309 130.529 611.6 129.916C619.892 126.012 627.474 124.431 636.508 127.238L628.668 112.784H628.635ZM649.059 154.469C650.22 153.243 640.799 134.788 638.573 133.207C630.539 127.625 617.924 130.658 610.213 135.466C600.985 141.209 604.889 143.435 609.051 151.598C621.279 148.5 629.474 146.274 641.767 150.952C644.38 151.953 646.51 153.501 649.059 154.469ZM607.18 163.535C603.566 154.114 602.598 143.499 593.435 137.853C581.046 130.174 562.913 130.723 549.104 133.756C546.749 134.272 533.714 136.982 538.973 139.95C548.62 145.435 566.85 146.532 578.045 150.436C582.949 152.146 589.596 154.953 594.371 157.115C598.727 159.083 602.663 161.89 607.148 163.503L607.18 163.535ZM658.125 182.378C656.028 157.567 633.54 146.758 611.374 156.566C612.987 159.212 613.665 163.406 615.02 165.826C616.569 168.633 627.893 171.408 631.604 172.957C640.121 176.506 648.413 181.926 658.125 182.378ZM611.374 213.771C607.696 214.126 603.598 213.48 599.856 213.771C590.209 214.513 580.53 215.674 570.883 216.223C571.851 217.61 574.658 222.805 575.98 222.74C586.982 218.998 599.759 215.965 611.374 214.481C612.471 214.351 623.957 214.093 623.957 213.416C623.86 211.835 623.021 211.77 621.731 211.835C619.602 211.899 616.214 212.287 613.988 212.545C612.858 212.674 611.632 213.771 611.406 213.771H611.374ZM764.887 246.583C755.143 245.164 744.722 241.55 735.398 238.033C727.848 235.194 720.233 231.871 712.974 228.354C710.845 227.322 697.423 219.191 696.487 220.062L704.327 240.84C706.489 240.518 714.426 245.228 715.007 245.164C715.749 245.099 715.007 242.486 719.201 243.067C722.04 243.454 723.524 246.39 726.17 245.938C727.041 245.777 725.525 242.873 729.687 243.067C739.947 245.035 752.917 250.616 763.241 248.003C764.403 247.713 765.274 248.713 764.951 246.583H764.887ZM743.27 250.745C738.882 251.1 731.913 247.358 728.203 247.261C726.686 247.196 725.976 248.39 724.75 248.648C721.33 249.294 720.491 247.519 718.168 246.906C713.845 245.777 709.36 245.486 705.585 242.389C705.005 243.196 707.554 249.971 708.134 250.1C718.943 249.778 730.106 251.875 740.818 251.455C741.657 251.423 743.399 251.971 743.238 250.778L743.27 250.745Z" fill="#FCC146"/>
<path d="M658.833 458.688L660.221 459.398C660.221 459.398 663.06 459.43 663.705 459.398L665.093 460.108C665.286 460.269 666.286 460.172 666.803 460.817C668.835 463.237 667.416 475.014 668.771 479.821C671.868 490.855 685.967 496.147 694.033 503.406C703.455 511.149 721.652 532.444 733.138 533.379C735.138 533.541 738.171 533.702 739.752 532.315C741.655 530.669 746.689 521.571 748.85 506.858C748.85 506.858 747.237 502.987 753.045 501.986C754.367 510.504 752.851 515.215 750.076 523.087C746.043 534.606 744.301 539.865 730.363 538.284C720.329 537.122 711.746 525.249 704.584 519.022C697.808 513.085 689.516 507.568 682.225 501.986C680.45 500.631 667.319 488.048 672.804 498.115C673.481 499.341 681.192 512.569 684.903 518.151C691.291 527.733 708.907 545.963 710.295 556.255C713.618 581.227 680.031 565.515 667.383 563.579C658.801 562.256 651.058 562.03 642.637 560.385L601.242 537.606C589.143 535.67 572.785 543.93 563.622 551.544C537.81 572.968 543.553 618.137 545.812 647.82C544.941 647.95 543.779 647.627 543.005 647.82C540.553 640.948 537.617 634.044 536.036 626.881C534.455 619.718 534.519 613.459 533.939 606.651C533.777 604.748 533.422 602.715 533.229 601.07C533.164 600.392 533.358 599.585 533.229 598.972H534.616C534.971 601.005 535.713 603.296 536.004 605.264C536.197 606.458 537.133 616.427 537.746 616.427C538.682 612.749 537.585 609.007 537.391 605.264C537.262 602.489 537.585 599.65 537.391 596.875C538.294 596.553 538.069 595.553 538.101 594.778C538.714 577.226 543.005 560.094 556.588 547.995C565.945 539.671 588.497 527.862 601.113 530.702C612.308 536.735 623.665 542.575 634.861 548.576C642.379 552.609 644.669 556.416 654.639 555.674L656.026 556.384C656.284 556.577 661.285 556.448 662.318 556.384L663.705 557.094C663.931 557.255 667.738 556.997 668.867 557.158C676.966 558.416 692.388 565.289 698.938 564.772C706.358 564.192 705.713 561.191 705.616 554.609C697.841 544.091 689.484 533.831 681.967 523.12C674.449 512.408 664.802 496.05 660.285 483.951C659.285 481.273 656.607 467.722 656.026 467.077L655.316 465.689C655.639 464.237 649.541 460.882 648.025 458.656C646.928 457.01 645.992 455.203 646.25 453.139C649.025 452.751 649.832 455.72 652.026 456.784C652.897 457.204 657.994 458.72 658.801 458.72L658.833 458.688Z" fill="#FCC146"/>
<path d="M515.743 532.283C517.969 529.895 520.711 527.088 524.131 526.701C523.163 530.121 520.743 531.928 518.969 534.799C497.223 570.257 492.996 598.23 512.29 635.915C513.355 638.012 513.678 642.69 516.485 644.304C516.033 641.852 515.259 638.722 514.387 636.431C514.097 635.721 513.032 635.979 513 635.915C512.064 634.173 511.258 625.849 510.903 625.461L510.193 624.074C510.225 623.622 510.161 623.138 510.193 622.687C510.258 622.009 510.161 621.299 510.193 620.589C512.258 621.073 514.129 627.784 515.162 629.914C516.388 632.43 518.098 634.979 519.259 637.335C519.421 637.657 519.259 638.593 519.647 639.367C521.292 642.626 523.518 645.626 524.486 649.208C526.293 649.466 525.357 648.175 525.035 647.24C523.873 643.723 510.484 614.266 517.84 585.712C518.162 584.583 519.517 583.583 519.937 582.905C518.711 609.62 521.389 634.495 534.488 658.048C536.424 661.533 539.876 664.598 540.199 668.76H539.489C539.489 668.76 535.875 667.308 535.65 667.34C535.295 667.34 535.262 668.76 534.907 668.824C533.23 669.018 525.777 665.275 524.099 663.888C520.873 661.242 515.968 652.66 512.936 652.015C507.096 641.206 499.772 629.43 497.062 617.298C496.61 615.266 482.414 571.322 515.71 532.315L515.743 532.283Z" fill="#FCC146"/>
<path d="M144.479 883.639C139.575 885.317 126.314 891.479 129.089 881.155C137.607 876.218 146.544 872.443 154.9 867.184C173.614 855.44 196.747 835.824 210.782 819.078C212.911 816.53 220.397 805.624 222.462 804.947C223.075 804.753 225.301 804.624 225.462 804.785C227.946 807.205 216.719 821.95 214.654 824.338C213.105 826.144 203.329 835.082 203.2 835.953C203.071 836.695 204.974 838.082 204.361 841.276C202.393 851.891 190.778 864.894 191.972 876.315C192.101 877.444 193.327 878.186 193.392 879.8C193.682 886.865 188.036 896.061 183.583 901.126C182.906 900.933 182.938 900.32 182.873 899.739C182.454 894.448 184.003 889.156 185.713 884.22C185.874 883.736 186.906 883.704 187.036 883.187C187.487 881.251 187.229 874.863 187.036 872.508L187.745 871.121C187.939 870.862 187.616 868.443 187.745 867.636C187.81 867.281 189.133 865.636 188.455 864.861C187.036 863.28 187.165 866.152 187.068 866.249C181.68 872.153 169.064 875.476 161.934 878.122V877.412C172.388 872.605 186.81 860.506 192.488 850.407C193.585 848.439 194.843 846.213 195.069 843.922C179.421 856.473 162.353 873.508 143.769 881.574C143.447 881.703 142.511 881.413 142.382 881.574C141.511 882.639 143.543 883.381 144.479 883.671V883.639Z" fill="#FCC146"/>
<path d="M414.561 150.985C415.271 150.985 416.045 151.372 416.658 151.695C414.335 157.889 412.657 154.921 409.689 157.276C408.076 157.018 407.721 157.534 408.979 158.664C408.818 159.115 409.205 160.18 408.85 160.954C407.947 163.051 398.719 165.633 395.945 166.923C384.297 172.247 371.876 179.087 360.615 185.314C350.968 190.637 347.064 195.509 335.707 197.058L335.288 196.38L334.32 197.058C329.835 197.961 326.415 204.834 322.382 207.802C319.091 210.222 315.091 211.383 311.477 213.642C295.216 223.837 286.117 235.775 267.34 244.873C265.791 245.615 263.887 248.777 261.984 249.971C257.435 252.81 249.949 254.456 244.626 254.972C243.497 255.069 242.238 254.23 240.625 254.391C237.883 254.682 233.462 257.908 230.139 256.94C225.332 255.553 231.268 253.198 234.172 252.875C245.884 251.617 247.304 249.423 257.564 245.583C259.532 244.841 262.21 244.873 263.791 244.131C264.726 243.68 267.856 238.614 269.792 236.872C284.44 223.547 306.896 206.544 324.738 198.316C343.741 189.573 361.003 176.473 380.393 167.439C383.942 165.794 402.236 158.922 403.462 157.696C404.301 156.825 404.333 155.437 405.333 154.501C406.947 152.953 412.335 151.049 414.593 151.049L414.561 150.985Z" fill="#FCC146"/>
<path d="M249.885 639.432C251.789 604.264 291.473 571.419 313.381 546.285C320.318 538.348 326.609 529.572 333.998 522.248C335.933 520.345 335.772 517.828 339.902 518.732C340.289 518.99 337.579 525.378 337.127 526.088C316.059 559.449 276.503 585.68 260.209 621.525C253.337 636.657 251.885 665.275 251.24 682.311C250.821 693.377 252.337 706.122 251.24 716.866H249.853C248.401 713.091 249.046 702.928 248.433 697.733C247.433 689.377 246.949 681.666 246.368 672.922C247.401 672.438 247.046 671.051 247.078 670.115C247.143 667.889 247.239 665.34 247.078 663.146L247.788 661.759C248.014 661.5 247.852 655.886 247.788 654.789L248.498 653.402C248.691 653.144 248.562 648.143 248.498 647.111L249.207 645.723C249.369 645.53 249.272 641.658 249.207 640.851C249.885 640.658 249.885 640.045 249.917 639.464L249.885 639.432Z" fill="#FCC146"/>
<path d="M464.797 409.84C459.344 432.393 436.34 446.008 416.433 454.623C396.526 463.237 391.106 462.302 378.393 482.886C374.328 489.5 371.36 497.276 367.456 504.051C366.714 505.245 363.875 504.471 363.616 504.729C363.391 504.955 363.681 509.827 363.616 511.02H360.132C358.97 507.923 359.519 505.181 359.422 501.954C359.422 501.212 359.713 499.179 359.067 499.147C358.261 499.663 358.357 501.148 358.035 501.954C355.647 507.568 350.324 516.699 346.194 521.151C340.548 527.249 339.483 518.312 344.419 512.408C346.775 509.601 349.42 509.827 349.646 509.601C349.84 509.439 349.646 505.794 349.872 504.568C350.679 500.276 352.937 495.017 355.97 491.823C357.519 490.178 360.551 488.823 361.197 487.984C361.874 487.08 361.777 485.403 362.423 484.693C363.326 483.757 365.81 483.306 366.359 484.983C366.488 485.403 366.004 493.243 365.746 493.598C365.649 493.727 364.455 493.436 364.359 493.598C364.197 493.791 364.165 498.47 364.713 498.502C366.036 497.405 365.972 494.727 366.456 493.598C368.585 488.887 373.102 480.95 376.361 476.627C378.974 473.175 382.233 471.11 384.588 467.786C385.621 467.786 386.33 467.367 386.685 466.399C388.944 465.302 392.622 461.269 395.558 459.559C411.98 450.041 431.468 443.459 446.374 430.812C453.601 424.682 456.247 414.518 462.764 409.195C463.506 409.195 464.248 409.775 464.861 409.905L464.797 409.84Z" fill="#FCC146"/>
<path d="M600.887 270.975C597.855 268.91 594.273 266.523 593.886 262.264C593.434 257.553 595.886 257.166 596.015 256.553C596.306 255.198 596.145 247.164 599.855 247.971C602.791 248.616 598.726 254.778 598.952 256.521C599.016 257.037 600.565 261.038 600.887 261.618C605.985 269.91 621.891 270.749 630.893 274.879C635.571 277.008 641.734 280.332 643.186 285.623C644.025 288.688 643.67 292.786 644.218 295.754C644.992 299.787 646.67 299.432 646.961 304.53C646.477 304.82 646.444 305.756 646.251 305.917C646.057 306.078 645.122 306.143 644.863 306.627C640.217 306.111 641.185 304.949 638.636 304.143C629.473 301.239 621.246 305.627 612.277 300.497C601.597 294.367 601.597 284.203 601.597 273.137C601.597 272.685 603.275 272.653 600.887 271.04V270.975ZM637.636 288.688C634.797 285.913 630.699 287.462 627.118 286.978C624.085 286.559 619.407 283.687 616.987 281.784C614.89 280.138 611.664 273.621 608.921 279.396C604.146 289.43 624.053 299.206 631.925 298.948C636.959 298.787 641.347 292.334 637.636 288.688Z" fill="#FCC146"/>
<path d="M367.101 247.261C367.649 247.358 368.972 247.067 369.165 247.261C371.134 249.552 361.841 263.135 359.777 265.393C348.904 277.234 317.93 287.301 302.185 291.205C298.249 292.173 294.248 292.947 290.312 294.012C289.796 293.689 286.795 294.657 286.827 292.269C286.827 292.044 290.021 289.914 290.312 289.817C291.312 289.462 299.41 288.333 299.378 287.365C296.442 286.655 293.183 287.946 290.312 288.398C277.116 290.559 266.017 289.075 252.95 289.753C249.078 289.946 245.723 292.366 242.206 290.075C237.173 286.817 242.271 284.203 246.078 283.558C259.467 281.235 275.987 284.042 290.021 283.558C296.474 283.332 303.121 280.654 309.444 283.364C325.835 275.589 343.806 271.62 357.357 259.102C361.035 255.714 364.971 251.842 367.133 247.229L367.101 247.261Z" fill="#FCC146"/>
<path d="M181.486 451.719C180.099 451.654 179.324 452.396 179.389 453.816C178.873 454.235 172.839 459.462 173.807 456.268C181.131 445.169 189.133 434.135 194.65 421.971C196.812 417.196 200.135 409.614 201.651 405.129C202.49 402.613 203.232 399.322 203.103 396.612C205.458 396.354 204.361 395.289 204.49 393.127C202.813 393.514 202.49 395.741 201.716 396.612C191.456 408.195 175.098 421.261 161.45 428.585C160.353 429.166 153.674 432.586 153.223 432.618C151.222 432.812 148.835 430.812 149.48 428.521C150.125 426.23 162.902 419.713 165.935 417.712C174.517 412.034 200.812 393.772 205.523 386.126C207.33 383.158 207.33 375.188 209.362 373.898C214.75 370.478 211.653 386.836 211.298 389.094C207.201 413.873 197.844 433.199 181.486 451.751V451.719Z" fill="#FCC146"/>
<path d="M473.895 589.164C473.992 590.261 474.605 596.036 474.96 596.133C476.573 596.617 475.96 594.585 475.992 593.681C476.057 592.165 475.895 590.648 475.992 589.164H477.38C479.283 601.005 481.284 613.104 487.833 623.364C488.091 623.751 487.22 625.203 489.221 624.752C489.446 625.719 488.833 626.203 488.511 626.849H487.123C483.574 623.461 482.768 622.493 480.703 617.557C479.799 615.363 477.186 604.941 476.605 604.554C476.412 604.425 475.089 606.135 472.443 602.78C468.636 597.972 467.249 588.519 466.861 582.55C465.603 562.224 469.636 544.285 479.057 526.378C483.155 518.57 489.511 507.116 498.254 504.406C494.641 514.021 487.349 521.668 483.026 531.024C474.54 549.318 471.895 569.193 473.863 589.196L473.895 589.164Z" fill="#FCC146"/>
<path d="M52.364 529.153C49.9442 530.992 47.4598 535.122 44.6528 537.122C40.4262 540.123 28.8434 544.801 29.3274 536.122C33.2636 536.219 37.4257 534.573 40.7166 532.508C44.2012 530.314 54.6547 519.119 57.0423 518.764C60.9785 518.183 60.2687 526.83 59.9461 529.411C57.9134 546.576 33.1023 570.967 25.004 588.68C24.2619 590.326 22.6487 596.553 22.3261 596.843C21.9389 597.166 20.4225 596.908 19.874 596.133C19.2287 595.23 19.7127 593.584 19.5513 593.359C19.5191 592.197 19.6159 591.035 19.5513 589.874C19.5513 589.196 19.6159 588.487 19.5513 587.777C20.2611 587.551 20.1321 586.938 20.2612 586.389C22.9391 572.064 44.2657 548.189 52.364 533.186C52.8479 532.283 54.2676 532.573 54.4289 529.863C54.5579 527.766 53.7836 528.088 52.3317 529.153H52.364ZM55.8485 527.765C56.1066 527.54 57.01 521.861 57.2681 520.796C55.8485 521.7 53.9772 525.249 53.7836 526.733C53.5578 528.379 55.6549 527.959 55.8808 527.765H55.8485Z" fill="#FCC146"/>
<path d="M140.832 355.959C140.219 356.54 136.219 357.701 134.702 358.54C121.409 366.154 105.761 389.417 99.2117 403.323C98.6955 404.452 95.5336 411.131 95.6304 411.582C96.437 415.615 101.148 409.001 101.664 408.582C104.116 406.549 117.086 396.805 119.151 396.063C120.151 395.708 121.022 395.547 120.732 396.967C111.762 406.388 101.922 414.905 92.7911 424.165C91.3715 425.617 88.5645 431.167 85.7898 429.134C83.9185 427.779 87.5644 418.293 88.3064 416.196C94.0817 399.806 118.635 353.507 137.316 351.442C140.929 351.023 142.93 353.991 140.8 355.991L140.832 355.959ZM96.3402 413.325C95.6304 412.615 93.5332 414.68 94.243 415.422C94.9528 416.164 97.05 414.067 96.3402 413.325Z" fill="#FCC146"/>
<path d="M445.956 136.304C446.246 135.853 446.504 135.111 446.924 134.853C451.086 132.465 465.411 133.627 470.638 134.272C472.832 134.562 481.769 137.014 482.511 136.853C482.963 136.756 483.834 135.853 483.64 135.595C480.93 134.465 476.929 131.174 477.349 127.916H487.48C488.577 127.916 492.932 130.852 494.416 130.755C495.029 130.691 495.062 128.561 496.707 128.045C501.192 126.658 509 130.658 512.968 132.788C513.807 133.239 513.839 134.982 516.453 133.498C516.711 133.949 517.098 134.82 517.163 134.885V136.272C517.163 136.272 516.582 136.821 516.453 136.982C515.033 135.788 513.323 136.982 512.968 136.982C510.194 136.982 504.289 135.337 502.966 135.53C502.579 135.595 499.675 140.176 496.223 138.369C495.449 139.047 500.321 143.854 497.643 145.726C495.546 147.21 484.737 142.209 481.704 141.338C471.928 138.531 456.441 134.756 446.665 136.95L445.956 136.24V136.304Z" fill="#FCC146"/>
<path d="M469.702 490.791C470.024 490.5 472.573 485.79 474.961 483.822C478.316 481.015 484.963 479.143 486.447 477.853C487.382 477.079 486.898 475.691 488.738 474.562C493.029 471.916 503.063 473.788 508.096 474.013C507.031 472.497 501.288 464.044 502.514 462.85C510.645 460.656 521.227 482.821 518.453 487.145C517.227 489.081 515.839 487.371 515.065 486.564C514 485.435 513.032 483.693 512.968 486.564C512.742 486.564 512.484 486.564 512.258 486.564C511.806 486.564 511.29 486.629 510.871 486.564C503.579 485.403 500.675 481.789 491.77 482.467C486.511 482.854 474.67 488.435 471.089 492.146C470.702 492.049 469.831 492.275 469.702 492.146C469.573 492.017 469.798 491.146 469.702 490.759V490.791ZM501.804 476.853C499.32 476.304 497.029 476.046 494.448 476.111C493.448 476.111 490.254 476.304 489.931 477.53C491.706 477.95 493.577 476.788 495.158 476.853C496.868 476.885 500.578 478.724 501.772 476.853H501.804Z" fill="#FCC146"/>
<path d="M462.732 240.969C468.959 260.489 454.343 292.011 444.018 309.144C440.05 315.726 434.146 321.339 430.338 327.566C428.854 329.954 426.918 336.246 426.08 337.246C425.467 338.02 424.015 338.31 423.66 337.956C423.014 337.342 425.112 331.051 425.628 329.825C427.951 324.114 433.694 316.855 437.049 311.241C444.276 299.077 450.633 285.913 455.956 272.911C460.989 260.715 460.538 255.779 461.344 243.067C461.441 241.486 460.731 240.647 462.732 240.969Z" fill="#FCC146"/>
<path d="M28.6501 451.719C28.1984 451.687 27.7144 451.719 27.2627 451.719C26.6497 450.203 24.7461 448.815 23.9718 446.299C22.8425 442.556 23.3265 439.362 23.0684 435.684C23.7782 435.49 23.6814 434.877 23.7782 434.296C25.101 425.069 29.4567 418.777 33.7155 410.356C35.6191 406.549 38.3293 402.677 39.9748 398.483C40.5233 397.096 40.8459 395.612 41.2653 394.16C36.9097 392.514 35.0384 398.644 31.8119 399.354C28.1984 400.161 27.8435 398.58 29.2308 395.353C29.9084 393.773 38.0067 388.513 40.007 387.965C49.4927 385.416 47.2665 393.514 45.1048 399.322C40.8782 410.679 27.2304 428.327 27.295 440.136C27.295 443.588 29.0695 448.041 28.7146 451.687L28.6501 451.719Z" fill="#FCC146"/>
<path d="M646.96 319.145C647.411 319.145 647.895 319.145 648.347 319.145C648.573 319.145 648.831 319.113 649.057 319.145C648.896 320.63 648.96 320.694 650.444 320.533C650.831 324.372 650.735 330.922 650.444 334.826C650.251 337.213 647.573 347.377 647.734 348.054C648.024 349.28 650.283 348.99 650.444 349.183C650.606 349.345 649.96 352.668 649.767 353.345C649.638 353.797 648.637 355.088 648.379 355.798C648.766 356.475 649.186 355.507 649.767 355.443C653.219 355.088 649.928 361.928 649.863 363.444C649.799 364.961 650.38 367.413 650.444 369.413C649.057 369.607 647.831 371.123 646.637 370.8C644.959 370.381 645.669 365.993 645.54 364.509C643.023 366.961 638.861 366.154 638.023 362.605C636.635 356.636 642.475 341.956 643.443 334.503C644.927 334.665 644.992 334.6 644.83 333.116C644.959 332.922 644.895 329.018 644.83 328.244C645.927 327.663 645.508 325.889 645.54 324.759C645.54 323.275 645.217 320.791 645.54 319.629C645.734 318.855 646.863 319.275 646.96 319.178V319.145Z" fill="#FCC146"/>
<path d="M230.334 289.14C231.044 289.108 231.721 289.14 232.431 289.14C232.625 289.398 233.496 289.495 233.722 290.301C235.044 294.754 227.398 295.464 226.946 296.206C226.01 297.69 228.398 300.465 225.268 302.562C222.139 304.659 207.233 307.918 202.554 309.176C200.457 309.724 197.779 309.692 195.972 310.273C191.197 311.822 193.198 313.596 186.358 312.176L185.648 310.789C186.1 310.563 188.003 305.724 192.165 303.691C198.166 300.755 213.072 300.852 216.654 298.303C217.396 297.787 217.009 295.722 217.364 294.689C218.428 291.495 227.14 289.301 230.334 289.14Z" fill="#FCC146"/>
<path d="M80.3057 273.782C82.1125 273.879 88.5653 273.782 90.2753 273.621C93.4372 273.363 100.503 270.265 104.568 269.749C115.603 268.362 128.508 272.814 139.349 274.427C142.414 274.879 155.288 272.266 156.288 277.008C157.03 280.558 146.608 282.171 144.156 282.074C141.446 281.945 140.672 278.557 139.188 278.105C136.768 277.363 131.799 278.235 128.863 277.976C117.635 276.912 103.729 273.072 92.6306 275.234C88.9847 275.944 87.791 279.686 81.9511 277.492C81.2091 277.202 80.7574 276.041 80.3702 275.879V273.782H80.3057Z" fill="#FCC146"/>
<path d="M530.486 606.877C531.422 613.975 533.003 620.009 534.584 626.849C536.326 634.269 537.036 642.368 542.263 648.466C542.069 649.079 542.489 651.047 542.263 651.273C533.164 651.015 532.358 637.689 529.647 630.882C526.808 619.944 523.614 598.263 524.808 591.971C526.163 589.293 525.776 583.808 525.518 581.518L526.227 580.13C526.227 579.904 526.227 579.646 526.227 579.42C526.227 579.42 529.906 602.263 530.486 606.909V606.877Z" fill="#FCC146"/>
<path d="M494.48 173.989C495.545 173.86 495.674 173.86 495.448 174.957C494.642 178.603 487.415 185.895 484.898 189.54C479.832 196.864 475.799 205.253 472.67 213.609C471.637 216.384 466.991 232.678 466.088 233.194C465.346 233.646 463.7 233.194 462.7 233.323C462.603 231.484 462.829 229.58 462.7 227.741C464.184 222.192 471.218 202.511 471.766 201.22C472.283 200.026 486.737 174.989 494.48 174.021V173.989Z" fill="#FCC146"/>
<path d="M464.12 534.057C466.249 517.602 482.607 496.792 500.062 495.695C501.062 495.63 502.837 495.05 502.482 496.727C488.027 506.245 478.316 513.892 470.572 529.734C469.379 532.218 464.862 544.865 463.378 545.22C463.313 543.123 463.442 541.026 463.378 538.929C463.345 537.767 463.474 536.574 463.378 535.444C464.087 535.283 463.991 534.638 464.087 534.057H464.12Z" fill="#FCC146"/>
<path d="M123.571 836.179C126.669 833.307 127.153 832.371 131.895 831.597C137.316 830.726 144.027 829.693 141.672 837.179C138.445 847.471 110.988 871.863 100.148 873.121C99.0828 873.25 98.1795 873.605 98.4376 872.121C108.02 864.603 117.506 857.053 126.636 849.02C127.217 848.503 128.379 848.471 129.185 847.729C132.863 844.406 136.251 840.792 138.219 836.179C137.219 835.469 126.152 837.759 123.571 837.566V836.179Z" fill="#FCC146"/>
<path d="M390.847 179.571C383.007 208.447 366.294 224.902 344.774 243.776V243.067C350.485 238.066 364.132 218.965 369.069 211.899C375.134 203.253 379.651 193.832 385.265 184.991C386.201 183.507 388.266 181.474 389.427 179.571H390.815H390.847Z" fill="#FCC146"/>
<path d="M129.831 312.144C130.283 312.176 130.767 312.08 131.219 312.144C134.8 312.628 140.123 316.532 143.802 318.081C155.255 322.856 173.936 326.405 186.358 326.824L185.648 328.921C184.777 329.083 184.325 329.599 184.261 329.631C183.486 329.76 182.583 330.309 182.164 330.341C167.838 331.535 144.963 327.889 133.154 319.178C132.67 318.823 128.928 315.242 128.799 314.983C127.186 311.725 129.702 312.338 129.831 312.209V312.144Z" fill="#FCC146"/>
<path d="M185.099 271.814C183.873 272.717 185.97 275.298 180.388 274.524C179.13 274.363 175.678 270.814 176.71 269.007C176.839 268.813 180.227 266.426 180.582 266.265C187.228 263.296 197.746 263.458 204.683 261.748C207.748 261.005 221.622 253.068 223.235 258.908C224.106 262.102 218.686 264.135 216.33 265.038C208.845 267.91 201.553 268.233 193.875 269.781C192.584 270.039 185.454 271.524 185.099 271.814Z" fill="#FCC146"/>
<path d="M556.944 231.226C556.944 231.226 556.782 232.484 556.944 232.613C558.17 233.645 558.654 231.677 558.331 230.516C561.815 228.967 561.073 229.871 563.203 231.903C563.687 232.355 563.784 233.581 564.945 233.291C566.107 232.678 564.622 231.968 564.59 231.903C563.848 227.483 567.558 228.322 568.075 231.193C568.204 231.839 568.171 233.291 568.075 234C567.72 237.065 567.204 235.872 565.687 237.582C565.3 238.001 565.461 239.098 565.106 239.421C564.558 239.937 563.461 239.421 563.203 239.582C562.751 238.582 562.267 237.937 561.106 238.195C560.912 239.356 561.622 240.26 562.493 240.969C562.235 241.841 562.17 243.099 561.783 244.454L560.396 245.841C552.072 243.615 544.006 240.131 535.972 236.775C535.101 236.42 534.359 236.291 533.875 236.065C528.745 233.936 526.551 232.71 522.001 229.774V228.386L558.299 241.647C556.234 232.839 546.264 232.161 542.263 224.902L542.973 224.192C544.909 224.031 546.619 224.708 548.329 225.45C550.297 226.321 555.234 229.741 556.944 231.161V231.226Z" fill="#FCC146"/>
<path d="M48.2022 267.491C49.396 268.136 51.1705 270.362 53.0741 270.265L50.9769 266.071C55.8165 264.458 66.3024 267.91 71.4001 269.717C73.7554 270.556 75.788 272.266 78.1756 273.04V275.137C74.6911 274.718 73.6909 276.492 71.5937 276.557C69.7869 276.621 67.4962 275.073 65.9475 275.202C64.9473 275.266 64.0439 276.428 62.4952 276.589C61.6241 276.686 53.6226 276.589 52.7514 276.492C48.8152 275.976 39.8458 268.523 33.4897 266.748V265.361C38.2326 265.651 43.8788 265.2 48.1377 267.458L48.2022 267.491Z" fill="#FCC146"/>
<path d="M155.675 756.647C157.191 753.647 160.418 745.903 164.418 745.484C172.13 744.677 163.321 754.97 160.547 756.647C160.289 756.809 154.804 757.26 160.547 758.035C160.902 759.067 161.902 759.971 161.902 761.164C161.902 763.778 153.803 772.908 151.158 773.392C149.061 773.78 150.319 770.198 150.803 769.198C149.932 768.521 137.897 773.65 136.51 773.392C133.251 772.747 138.962 768.166 140.091 767.23C144.382 763.81 150.319 761.681 154.287 758.745C155.772 757.648 155.126 757.744 155.675 756.647Z" fill="#FCC146"/>
<path d="M46.7832 296.109V297.496C44.8796 297.399 43.2987 298.561 41.4919 298.851C39.1044 299.206 31.9417 299.432 30.0381 301.013C26.844 301.239 26.9408 300.852 26.5536 298.206C26.4891 297.787 26.5536 297.27 26.5536 296.819C28.6185 296.883 29.1347 295.786 26.5536 295.431C24.4242 295.141 23.9725 295.948 21.9721 294.076C18.294 290.592 20.0362 284.849 13.4544 281.655C12.3574 281.138 3.1621 278.718 5.61418 275.879C7.42097 273.782 18.3585 277.331 20.617 279.364C23.7144 282.106 23.8112 286.397 25.5212 289.108C26.4245 290.495 37.3944 294.431 39.7819 295.076C42.4276 295.786 44.0085 296.044 46.751 296.109H46.7832Z" fill="#FCC146"/>
<path d="M136.833 337.988C136.833 337.988 137.607 338.665 138.22 338.698C142.866 338.923 147.674 339.407 152.191 338.698C151.868 340.569 152.642 340.117 154.288 340.085C154.191 342.763 154.191 343.731 151.094 344.215C143.705 345.344 129.089 343.731 120.798 343.569C118.7 343.537 116.603 343.634 114.506 343.569C112.151 343.505 107.021 344.15 105.44 342.537C102.052 339.085 111.344 338.117 113.441 337.955C120.378 337.439 129.799 337.697 136.833 337.955V337.988Z" fill="#FCC146"/>
<path d="M131.928 324.727C131.67 326.76 132.186 325.889 133.315 326.115C135.445 326.566 138.026 327.728 140.284 328.534C149.222 331.761 158.804 335.923 168.548 335.149C172.742 334.826 177.098 332.729 181.454 333.084C182.228 333.729 178.905 336.826 178.324 337.278C171.419 342.569 162.127 340.633 154.255 339.375C153.868 336.955 153.384 338.407 152.158 337.988C141.607 334.213 135.025 331.599 127.024 324.017V323.308C128.992 323.759 129.96 323.856 131.896 324.695L131.928 324.727Z" fill="#FCC146"/>
<path d="M134.735 596.165C134.896 595.907 134.67 593.262 135.058 591.971C137.413 584.389 164.289 543.897 170.355 537.251C173.226 534.089 175.355 530.992 180.098 531.992C180.26 533.283 179.388 534.186 178.679 535.122C175.13 540.026 168.741 545.704 164.741 550.834C163.998 551.77 163.321 552.706 162.643 553.641C152.674 566.87 144.092 582.131 135.412 596.198H134.703L134.735 596.165Z" fill="#FCC146"/>
<path d="M511.58 651.982C512.838 653.563 513.968 656.08 515.387 657.596C517.291 659.629 520.646 661.049 522.034 663.856C521.388 664.146 521.259 666.179 518.549 664.92C509.58 657.564 501.675 648.756 496.093 638.528C493.899 634.495 491.254 629.139 489.931 624.816C489.802 624.429 490.028 623.816 489.931 623.429C489.286 621.138 489.027 618.75 488.543 616.46L489.931 615.072C494.867 628.268 502.836 641.077 511.58 652.047V651.982Z" fill="#FCC146"/>
<path d="M616.954 333.084C616.954 333.084 615.696 332.922 615.567 333.084C614.341 334.568 617.083 334.697 618.341 334.471C618.083 337.891 615.341 339.859 615.05 341.182C614.921 341.827 615.115 344.021 614.857 345.634L610.662 346.344C609.114 344.537 609.469 343.376 609.146 342.989C609.017 342.86 606.855 342.118 605.791 341.472V339.375C605.791 339.375 605.887 337.439 606.565 336.342C607.985 334.084 610.985 332.116 612.727 329.954C617.115 324.469 622.471 317.016 622.503 310.079C622.503 309.369 622.503 308.692 622.503 307.982C626.665 306.304 626.214 312.144 625.794 315.145C625.214 319.404 619.696 329.793 616.922 333.116L616.954 333.084Z" fill="#FCC146"/>
<path d="M157.74 591.261C157.966 590.1 157.514 589.584 158.385 588.099C160.095 585.26 170.258 578.485 170.226 585.325C166.419 595.972 156.965 607.038 153.739 617.621C150.319 628.784 156.933 624.687 158.449 626.139C159.772 627.429 157.352 630.107 155.223 630.301C146.125 631.14 151.158 615.395 152.997 610.588C155.513 604.102 162.224 596.101 163.999 590.197C164.257 589.325 163.838 588.809 162.966 589.164C161.418 589.842 159.192 592.939 157.707 594.036C157.74 593.907 157.514 592.261 157.707 591.229L157.74 591.261Z" fill="#FCC146"/>
<path d="M534.585 239.582C521.228 244.68 498.385 237.775 492.803 223.805C491.158 219.707 489.319 211.383 495.513 210.996C493.803 219.611 496.998 225.773 503.934 230.838C512.775 237.291 522.97 236.323 533.198 236.807C533.262 236.807 533.811 237.453 534.585 237.517V239.614V239.582Z" fill="#FCC146"/>
<path d="M175.195 903.869H177.292C177.712 904.32 178.26 904.837 178.679 905.256C178.679 905.966 178.679 906.643 178.679 907.353C178.583 909.999 177.647 912.419 177.292 915.032C177.292 915.129 176.711 915.742 176.582 917.129C176.098 922.195 177.292 926.454 175.389 931.648C173.969 935.52 170.097 938.262 168.549 942.263C166.871 942.65 167.452 940.037 167.484 939.101C167.871 931.906 170.194 927.002 169.613 918.549C170.517 918.226 170.291 917.226 170.323 916.452C170.517 911.16 169.549 908.224 173.904 904.385C174.356 903.965 175.066 904.03 175.227 903.901L175.195 903.869Z" fill="#FCC146"/>
<path d="M237.303 746.194C238.109 739.257 241.045 743.258 241.497 747.936C242.562 759.164 233.625 776.78 230.043 787.427C225.688 789.847 228.011 785.008 228.236 782.491C228.946 782.297 228.849 781.684 228.946 781.104C229.333 777.909 229.946 773.651 230.656 770.585C231.85 765.359 236.367 756.583 235.915 751.776L236.625 750.388C236.625 750.388 236.69 748.065 236.625 747.581C237.335 747.42 237.27 746.775 237.335 746.194H237.303Z" fill="#FCC146"/>
<path d="M190.551 459.398C180.549 470.432 166.869 480.402 153.351 486.726C148.576 488.952 148.285 486.661 151.834 483.822C157.835 479.014 165.353 473.271 171.774 468.851C177.452 464.915 183.55 460.075 190.584 459.398H190.551Z" fill="#FCC146"/>
<path d="M693.517 375.124C695.646 376.995 691.839 390.514 691.613 394.127C691.517 395.87 693.743 410.356 689.194 404.194C686.709 400.806 686.967 391.353 688.452 387.481C689.032 385.932 691.743 383.028 691.484 381.641C691.065 379.221 686.064 380.738 684.419 376.801C682.709 372.639 687.484 370.639 686.742 368.316C686.612 367.961 679.192 365.315 685.29 363.347C691.388 361.379 687.677 371.413 691.259 374.253C691.936 374.801 693.098 374.737 693.517 375.091V375.124Z" fill="#FCC146"/>
<path d="M165.966 691.216C167.87 693.184 165.063 706.089 164.74 709.542C164.288 714.317 164.45 719.544 164.03 724.19C163.966 724.996 163.708 728.578 162.288 728.029C158.578 726.545 158.933 710.51 159.158 706.767C159.288 704.315 160.481 693.829 161.385 692.248C162.288 690.667 164.643 689.861 165.966 691.248V691.216Z" fill="#FCC146"/>
<path d="M651.156 372.155C651.252 371.93 653.511 370.381 653.93 370.768C654.092 370.897 653.801 372.317 653.93 372.865C655.834 380.931 648.736 387.545 649.026 395.515C649.155 398.999 657.286 417.712 656.028 418.906C652.995 419.906 652.091 416.551 651.446 414.067C650.381 409.905 649.446 406.162 648.026 402.129C645.38 394.676 643.638 393.998 645.897 385.416C646.994 381.222 649.317 377.866 651.091 374.414C651.414 373.801 650.962 372.575 651.091 372.155H651.156Z" fill="#FCC146"/>
<path d="M482.252 417.519L480.865 420.326C480.413 420.39 479.929 420.294 479.478 420.326L478.09 419.616C477.219 418.455 468.701 412.292 466.217 409.84C464.055 407.678 464.862 408.775 463.41 407.743C461.442 406.356 460.571 401.774 459.248 401.097C457.022 400 449.181 401.096 445.987 399.354C448.246 396.741 455.634 396.676 458.506 397.644C460.635 398.354 469.895 406.71 472.541 408.711C475.638 411.066 479.413 412.389 481.865 415.454C482.349 416.067 482.123 417.325 482.252 417.487V417.519Z" fill="#FCC146"/>
<path d="M32.8441 378.447C33.1667 373.478 36.9416 369.897 39.2324 365.67C41.136 362.186 44.0397 353.313 47.8147 352.636C49.3311 352.345 48.8794 353.345 48.8794 354.41C48.9439 359.798 39.7486 379.028 35.2639 381.996C32.1988 384.029 32.9731 381.48 32.7796 381.254C32.8118 380.318 32.715 379.383 32.7796 378.447H32.8441Z" fill="#FCC146"/>
<path d="M626.02 411.937C626.182 413.905 626.569 416.906 623.923 416.809C623.826 416.712 622.988 417.067 622.568 416.293C621.278 413.938 621.31 411.647 621.149 409.13C621.052 407.807 621.084 406.291 621.149 404.936C621.245 402.613 621.536 400.903 621.858 398.644C622.052 397.289 622.794 395.934 622.536 394.45L619.761 397.225C619.761 396.063 619.761 394.902 619.761 393.74C619.761 390.094 622.213 382.093 626.924 383.383C631.344 384.577 626.988 391.933 626.375 394.45C624.149 403.194 625.375 403.903 626.02 411.905V411.937Z" fill="#FCC146"/>
<path d="M150.06 816.659V814.561C152.222 813.239 152.448 809.948 153.932 807.625C155.416 805.302 162.385 796.106 164.385 795.719C173.613 793.945 163.611 808.141 161.223 810.754C158.191 814.078 154.803 816.723 150.028 816.659H150.06Z" fill="#FCC146"/>
<path d="M188.455 494.985C188.519 490.823 193.714 481.983 196.811 479.24C199.037 477.272 200.941 477.369 203.812 477.53C204.006 479.789 203.877 481.273 203.006 483.37C201.715 486.371 192.552 498.728 189.487 499.212C187.938 499.47 188.616 497.921 188.455 497.792C188.455 496.856 188.455 495.921 188.455 494.985Z" fill="#FCC146"/>
<path d="M703.487 425.907C706.229 431.78 709.714 442.298 712.65 447.105C714.102 449.493 717.135 451.009 718.393 453.913C719.199 455.687 720.845 462.431 717.425 459.785C716.747 459.269 708.939 450.041 708.456 449.202C706.584 446.008 701.164 431.36 701.39 428.037C701.422 427.488 701.293 426.037 701.39 425.94C701.551 425.778 702.971 426.037 703.487 425.94V425.907Z" fill="#FCC146"/>
<path d="M445.278 141.886L444.568 146.081C439.373 146.952 432.985 146.565 427.565 147.565C424.306 148.145 419.983 150.114 417.369 150.275C416.789 150.307 416.143 150.21 415.982 149.565C419.983 147.081 422.564 147.048 426.436 145.371C427.081 145.08 428.049 145.306 428.533 144.306L427.145 140.499C427.371 140.241 427.081 138.886 428.275 138.499C431.017 137.595 439.406 138.499 442.309 139.66C444.019 140.338 444.6 141.499 445.31 141.886H445.278Z" fill="#FCC146"/>
<path d="M614.858 347.731C615.664 347.796 616.826 348.183 617.665 348.441C618.762 348.764 619.601 349.054 620.472 349.829C620.181 352.442 618.891 355.281 617.278 357.475C616.342 358.766 607.921 367.993 607.179 368.316C604.759 369.413 602.404 368.703 603.146 365.735C604.146 361.799 608.889 358.443 611.373 355.443C611.76 354.991 613.083 354.862 612.761 353.7C612.761 352.958 611.793 353.539 611.373 353.345C610.889 353.152 610.47 352.829 609.986 352.636L609.276 351.248C609.663 349.958 609.308 348.28 611.373 347.764C612.051 347.602 614.019 347.699 614.858 347.764V347.731Z" fill="#FCC146"/>
<path d="M681.838 334.471L681.128 335.503L681.838 335.858C681.483 341.859 680.676 347.893 681.16 353.991L686.032 353.281C686.774 356.604 683.935 358.605 681.838 360.605C681.322 361.089 680.386 364.509 678.74 360.96C677.966 359.282 678.224 348.248 678.386 345.634C678.45 344.796 679.837 342.44 679.063 340.762C677.966 340.633 677.74 343.053 677.676 344.247H676.966L674.159 343.537C673.643 342.247 673.32 342.472 673.578 340.601C673.739 339.472 675.74 334.6 676.256 333.761C676.546 333.245 676.74 332.729 676.966 332.374C680.225 326.857 681.58 329.535 681.838 334.471ZM679.741 340.053C680.096 337.149 678.708 337.149 679.063 340.053H679.741Z" fill="#FCC146"/>
<path d="M419.466 382.641C419.369 382.157 419.757 381.899 420.176 381.932C421.467 382.061 426.5 386.642 428.791 387.642C429.887 388.126 434.372 389.61 435.211 389.61H449.859C451.569 389.61 451.666 392.611 447.568 393.611C439.889 395.482 429.145 394.805 423.306 388.965C421.176 386.803 420.886 384.706 419.498 382.641H419.466Z" fill="#FCC146"/>
<path d="M187.067 471.239C187.842 468.561 188.358 467.754 189.971 465.431C191.358 463.431 200.038 452.106 202.425 454.494C203.199 460.398 196.23 465.205 194.424 469.884C193.359 472.626 194.746 476.401 189.519 475.465C187.519 475.11 188.132 473.755 187.777 473.336L187.067 471.239Z" fill="#FCC146"/>
<path d="M144.479 411.937V412.647C144.801 416.422 130.96 424.553 128.766 424.488C122.41 424.359 127.314 413.26 131.928 412.647H132.638C131.67 417.035 137.703 413.034 140.284 412.26C141.801 411.808 143.446 412.228 144.511 411.969L144.479 411.937ZM132.283 415.422V416.132C132.735 415.906 132.735 415.68 132.283 415.422Z" fill="#FCC146"/>
<path d="M366.424 246.551C365.262 248.584 359.132 255.682 357.358 257.005C355.228 258.586 351.389 259.683 348.743 258.941C347.936 258.715 347.807 257.844 347.582 257.682V255.585C349.84 253.359 351.066 253.875 353.131 252.423C358.261 248.842 362.552 243.357 368.166 240.26C368.876 242.099 367.327 244.938 366.424 246.551Z" fill="#FCC146"/>
<path d="M497.609 448.912C498.48 449.041 499.609 448.751 500.416 448.912C505.74 450.009 521.775 456.107 520.678 463.205C519.871 468.432 513.128 460.462 511.386 459.236C508.579 457.268 499.158 451.396 496.222 450.331V448.944C496.673 449.009 497.157 448.88 497.609 448.944V448.912Z" fill="#FCC146"/>
<path d="M117.989 418.906C117.247 420.487 116.924 421.003 115.892 422.391C113.182 426.037 103.309 433.619 98.7918 432.844C97.3722 432.619 97.4367 431.715 97.0496 431.457C97.0818 431.005 96.985 430.521 97.0496 430.07C97.2109 428.779 98.5337 424.391 99.4371 423.714C100.211 423.101 102.922 422.713 103.341 423.068C103.535 423.23 103.148 424.875 103.341 425.165L102.276 427.23C103.244 426.875 104.18 425.52 104.728 425.165C108.568 422.617 113.537 420.165 117.989 418.874V418.906Z" fill="#FCC146"/>
<path d="M247.788 722.447C247.885 722.802 247.594 723.641 247.788 723.803C248.143 724.093 249.853 723.706 250.563 723.803C250.724 726.771 251.853 735.74 247.497 734.224C247.078 734.095 243.4 727.739 243.045 726.803C242.142 724.512 241.658 721.383 241.496 718.931C241.432 717.995 241.529 717.059 241.496 716.124C241.722 715.833 241.496 714.446 242.593 714.091C247.046 712.639 247.014 719.866 247.756 722.415L247.788 722.447Z" fill="#FCC146"/>
<path d="M154.964 797.107C156.255 798.397 149.157 805.528 147.995 806.528C142.478 811.271 137.864 812.4 130.54 811.755C129.443 806.754 133.089 808.238 136.67 807.076C140.252 805.915 145.963 803.108 149.124 801.043C149.834 800.591 153.577 795.719 154.964 797.107Z" fill="#FCC146"/>
<path d="M489.254 425.198C491.286 426.521 493.771 426.585 496.61 429.36C499.869 432.586 498.578 433.651 499.675 435.329C500.675 436.877 509.225 440.814 507.418 442.62C506.096 443.943 493.609 437.265 492.706 436.038C491.286 434.135 492.996 432.877 492.448 431.457C492.19 430.812 490.351 429.553 489.641 428.618C488.867 427.585 488.899 426.392 488.576 425.875L489.286 425.165L489.254 425.198Z" fill="#FCC146"/>
<path d="M60.7537 479.627C64.5609 480.079 63.8188 481.821 63.3671 485.37C62.5283 491.92 58.6888 498.728 54.6236 503.858C53.9783 504.697 53.8169 505.761 52.3651 505.439C51.4939 504.439 57.9468 490.081 57.9468 487.306L58.6566 485.919C58.7856 485.758 58.947 482.854 59.3664 481.725C59.5277 481.273 60.7215 480.499 60.7537 479.627Z" fill="#FCC146"/>
<path d="M120.764 344.957C121.152 346.538 122.023 347.506 120.829 349.377C120.281 350.216 108.924 354.055 107.827 353.991C105.633 353.894 105.987 351.99 105.407 351.248V349.151C108.569 346.151 110.117 345.763 114.473 344.957C116.699 344.537 118.571 343.924 120.764 344.957Z" fill="#FCC146"/>
<path d="M48.2027 605.909C44.7182 607.232 41.7821 600.263 39.4591 600.295C37.8136 600.295 36.2972 605.78 31.1027 605.296C28.1344 605.006 27.7472 601.747 29.3282 600.65C30.2316 600.037 33.6838 600.457 35.5551 599.876C38.7816 598.876 39.2333 595.52 43.847 597.359C48.848 599.392 47.6542 602.36 48.9125 605.909H48.2027Z" fill="#FCC146"/>
<path d="M481.574 494.985V494.275C481.574 494.275 481.638 493.049 482.316 492.598C487.059 489.371 498.319 483.531 503.933 486.242C505.998 487.242 505.481 490.791 504.288 490.791H493.124C492.511 490.791 482.735 494.437 481.606 494.985H481.574Z" fill="#FCC146"/>
<path d="M648.282 274.524C648.508 280.912 653.251 288.172 652.348 294.205C652.057 296.077 650.573 303.046 647.637 300.981C650.896 297.045 644.282 276.331 646.25 274.46C646.379 274.331 647.734 274.492 648.282 274.492V274.524Z" fill="#FCC146"/>
<path d="M344.774 250.068C345.581 254.391 330.772 264.684 328.739 262.619C328.578 262.457 328.675 259.554 328.868 258.908C329.32 257.424 341.871 248.81 344.774 250.068Z" fill="#FCC146"/>
<path d="M152.868 679.181C153.029 675.922 152.416 673.309 155.675 671.18C158.579 669.308 160.644 669.47 160.547 673.245C160.547 674.309 155.514 686.408 154.933 686.828C152.61 688.57 152.868 682.085 152.836 681.246C152.836 680.568 152.803 679.826 152.836 679.149L152.868 679.181Z" fill="#FCC146"/>
<path d="M420.144 358.217C420.144 358.217 420.822 358.863 420.854 358.927C421.048 359.927 420.693 361.315 421.015 362.573C422.015 366.477 424.306 370.026 423.629 374.285C418.208 374.995 416.66 366.509 416.66 362.412C416.66 361.702 416.66 361.024 416.66 360.315C417.144 359.411 415.466 357.153 420.144 358.217Z" fill="#FCC146"/>
<path d="M662.997 433.586C666.029 437.619 669.32 443.395 669.74 448.686C669.804 449.654 669.159 450.719 669.256 451.719C665.255 451.332 665.642 449.009 665.061 446.137C664.771 444.782 664.9 444.33 664.352 442.653C663.384 439.62 659.028 438.942 660.286 434.748C660.544 433.941 661.416 433.812 661.577 433.586H662.964H662.997Z" fill="#FCC146"/>
<path d="M48.1701 467.077C49.3639 471.464 40.1041 480.014 37.3616 475.465C34.7805 471.206 44.4275 465.915 48.1701 467.077Z" fill="#FCC146"/>
<path d="M677.677 303.788C677.193 312.467 677.612 319.049 674.87 327.502H673.483C672.934 320.791 674.999 311.628 674.87 303.788H677.677Z" fill="#FCC146"/>
<path d="M50.2667 608.006C52.9124 608.329 56.4614 614.975 60.0105 616.04C55.8807 621.654 50.1699 617.137 48.9116 611.781C48.6212 610.588 49.0084 609.2 48.8793 608.006C49.331 608.039 49.815 607.942 50.2667 608.006Z" fill="#FCC146"/>
<path d="M418.756 378.447C418.304 378.06 413.626 373.995 416.336 374.253C419.692 374.543 423.596 377.931 426.983 378.963C429.177 379.641 434.533 379.576 434.824 379.867C434.953 379.996 435.049 381.48 434.372 381.996C430.791 384.964 424.209 381.996 420.853 379.867C420.498 379.641 418.853 378.544 418.756 378.479V378.447Z" fill="#FCC146"/>
<path d="M616.245 366.574H617.633C617.568 369.736 613.954 376.447 613.051 380.48C612.599 382.545 613.019 384.351 612.728 386.094C612.567 387.191 611.857 389.61 610.631 388.901C610.341 387.481 610.147 386.158 609.921 384.706L610.631 383.319C611.922 381.577 610.438 372.026 616.213 366.574H616.245Z" fill="#FCC146"/>
<path d="M613.47 386.126C615.212 381.835 617.857 377.156 622.891 376.35C624.084 379.028 619.761 379.576 617.793 382.415C617.148 383.351 616.341 385.061 615.954 386.158C614.921 388.901 614.631 397.806 610.695 392.772C612.405 392.288 611.76 391.708 612.082 391.03C613.147 388.836 612.986 387.384 613.47 386.158V386.126Z" fill="#FCC146"/>
<path d="M41.9101 355.41C43.6847 356.733 29.4884 364.315 27.5526 364.444C26.7137 364.509 25.165 364.154 25.165 363.412C25.165 362.476 40.7809 354.539 41.9101 355.41Z" fill="#FCC146"/>
<path d="M31.4255 452.396C42.1049 444.105 34.4583 457.172 32.1353 458.365C28.199 460.366 28.4894 456.204 27.9409 454.494C29.7154 454.268 30.393 453.203 31.4255 452.396Z" fill="#FCC146"/>
<path d="M26.5534 314.951C26.7793 316.564 28.0376 317.79 27.9731 320.146C27.7795 327.437 21.5202 325.889 23.198 316.79C23.3916 315.79 24.424 315.08 24.4563 314.951H26.5534Z" fill="#FCC146"/>
<path d="M498.32 447.524C498.449 446.879 497.9 445.621 498.707 445.395C500.772 444.847 512.806 445.976 513.677 447.879C513.806 448.138 513.935 449.622 513.322 449.622C508.612 449.848 505.095 447.524 500.417 447.524C499.707 447.524 499.029 447.524 498.32 447.524Z" fill="#FCC146"/>
<path d="M630.215 411.937C630.054 413.421 630.118 413.486 631.603 413.325C631.796 415.357 632.119 422.1 628.505 420.971C628.118 420.842 626.795 418.584 626.698 418.196C626.343 416.519 626.182 412.518 628.086 411.905C628.763 411.969 629.538 411.808 630.183 411.905L630.215 411.937Z" fill="#FCC146"/>
<path d="M649.736 249.358C652.317 256.166 645.057 258.812 644.799 253.23C644.67 250.003 646.187 250.455 647.638 249.358H649.736Z" fill="#FCC146"/>
<path d="M699.294 421.003C698.294 421.778 691.873 412.228 696.197 411.26C698.197 410.808 700.81 419.229 699.294 421.003Z" fill="#FCC146"/>
<path d="M58.6554 479.627C58.4296 479.692 58.1392 480.273 57.9456 480.337C53.8481 481.499 51.4928 483.241 50.9766 476.853C53.59 476.917 58.1392 476.014 58.6554 479.627Z" fill="#FCC146"/>
<path d="M26.5527 311.467L24.4555 310.757C24.3587 310.466 23.3263 310.208 23.2295 309.918C22.3261 307.821 23.7457 305.853 26.1333 306.627C28.5208 307.401 26.5527 310.176 26.5527 311.434V311.467Z" fill="#FCC146"/>
<path d="M648.348 241.679C648.767 241.615 649.284 241.744 649.735 241.679C652.026 250.842 641.702 242.938 648.348 241.679Z" fill="#FCC146"/>
<path d="M633.668 427.295C632.474 427.424 631.377 427.424 630.99 426.166C629.344 421.036 636.604 420.971 633.668 427.295Z" fill="#FCC146"/>
<path d="M659.512 424.488C657.092 426.133 656.092 421.068 656.737 419.616C659.673 418.519 660.802 423.617 659.512 424.488Z" fill="#FCC146"/>
<path d="M420.853 357.508L422.595 352.603C423.692 354.249 422.789 355.991 422.24 357.508C421.789 357.572 421.208 357.411 420.853 357.508Z" fill="#FCC146"/>
<path d="M166.837 943.65C168.902 944.522 166.45 946.361 165.45 943.65C165.901 943.715 166.579 943.521 166.837 943.65Z" fill="#FCC146"/>
<path d="M149.028 773.392C149.48 773.618 149.48 773.844 149.028 774.102V773.392Z" fill="#FCC146"/>
<path d="M121.474 395.192H122.184C122.184 395.192 122.281 395.87 121.829 395.87C121.377 395.741 121.539 395.45 121.474 395.192Z" fill="#FCC146"/>
<path d="M52.3645 506.826H51.6547C51.6547 506.826 51.5579 506.181 52.0096 506.149C52.429 506.278 52.3 506.536 52.3645 506.826Z" fill="#FCC146"/>
<path d="M734.622 690.57V661.92L737.138 664.533H728.104V659.726H740.365V690.603H734.622V690.57Z" fill="#FCC146"/>
<path d="M678.643 735.288V706.638L681.16 709.251H672.126V704.444H684.386V735.321H678.643V735.288Z" fill="#FCC146"/>
<path d="M712.456 735.288V706.638L714.973 709.251H705.939V704.444H718.199V735.321H712.456V735.288Z" fill="#FCC146"/>
<path d="M746.623 735.288V706.638L749.14 709.251H740.106V704.444H752.366V735.321H746.623V735.288Z" fill="#FCC146"/>
<path d="M797.762 690.57V661.92L800.279 664.533H791.245V659.726H803.505V690.603H797.762V690.57Z" fill="#FCC146"/>
<path d="M814.605 782.394V753.744L817.121 756.357H808.087V751.55H820.348V782.426H814.605V782.394Z" fill="#FCC146"/>
<path d="M706.262 782.394V753.744L708.778 756.357H699.744V751.55H712.005V782.426H706.262V782.394Z" fill="#FCC146"/>
<path d="M674.643 782.394V753.744L677.16 756.357H668.126V751.55H680.386V782.426H674.643V782.394Z" fill="#FCC146"/>
<path d="M828.769 826.37V797.72L831.286 800.333H822.252V795.526H834.512V826.403H828.769V826.37Z" fill="#FCC146"/>
<path d="M868.389 867.442V838.792L870.906 841.405H861.872V836.598H874.132V867.475H868.389V867.442Z" fill="#FCC146"/>
<path d="M687.741 867.442V838.792L690.258 841.405H681.224V836.598H693.484V867.475H687.741V867.442Z" fill="#FCC146"/>
<path d="M724.072 867.442V838.792L726.588 841.405H717.554V836.598H729.815V867.475H724.072V867.442Z" fill="#FCC146"/>
<path d="M652.09 867.442V838.792L654.607 841.405H645.573V836.598H657.833V867.475H652.09V867.442Z" fill="#FCC146"/>
<path d="M906.17 867.442V838.792L908.687 841.405H899.653V836.598H911.913V867.475H906.17V867.442Z" fill="#FCC146"/>
<path d="M803.344 913.612V884.962L805.861 887.575H796.827V882.768H809.087V913.645H803.344V913.612Z" fill="#FCC146"/>
<path d="M633.215 826.37V797.72L635.732 800.333H626.698V795.526H638.958V826.403H633.215V826.37Z" fill="#FCC146"/>
<path d="M670.642 826.37V797.72L673.158 800.333H664.125V795.526H676.385V826.403H670.642V826.37Z" fill="#FCC146"/>
<path d="M705.907 826.37V797.72L708.424 800.333H699.39V795.526H711.65V826.403H705.907V826.37Z" fill="#FCC146"/>
<path d="M742.269 826.37V797.72L744.785 800.333H735.751V795.526H748.012V826.403H742.269V826.37Z" fill="#FCC146"/>
<path d="M771.274 733.901C769.338 732.675 767.789 730.868 766.66 728.513C765.531 726.158 764.95 723.286 764.95 719.898C764.95 716.511 765.531 713.639 766.66 711.284C767.789 708.929 769.338 707.122 771.274 705.896C773.21 704.67 775.404 704.057 777.888 704.057C780.372 704.057 782.534 704.67 784.47 705.896C786.406 707.122 787.955 708.929 789.084 711.284C790.213 713.639 790.762 716.511 790.762 719.898C790.762 723.286 790.213 726.158 789.084 728.513C787.955 730.868 786.438 732.675 784.47 733.901C782.502 735.127 780.308 735.74 777.888 735.74C775.468 735.74 773.21 735.127 771.274 733.901ZM781.566 729.578C782.631 728.803 783.47 727.61 784.083 725.996C784.696 724.383 784.986 722.35 784.986 719.866C784.986 717.382 784.696 715.317 784.083 713.704C783.47 712.09 782.631 710.897 781.566 710.122C780.502 709.348 779.276 708.961 777.888 708.961C776.501 708.961 775.21 709.348 774.145 710.122C773.081 710.897 772.242 712.09 771.661 713.704C771.048 715.317 770.758 717.35 770.758 719.866C770.758 722.35 771.048 724.383 771.661 725.996C772.274 727.61 773.081 728.803 774.145 729.578C775.21 730.352 776.469 730.739 777.888 730.739C779.308 730.739 780.502 730.352 781.566 729.578Z" fill="#FCC146"/>
<path d="M762.208 689.183C760.272 687.957 758.723 686.15 757.594 683.795C756.465 681.44 755.884 678.568 755.884 675.18C755.884 671.793 756.465 668.921 757.594 666.566C758.723 664.211 760.272 662.404 762.208 661.178C764.143 659.952 766.337 659.339 768.822 659.339C771.306 659.339 773.468 659.952 775.404 661.178C777.34 662.404 778.888 664.211 780.017 666.566C781.147 668.921 781.695 671.793 781.695 675.18C781.695 678.568 781.147 681.44 780.017 683.795C778.888 686.15 777.372 687.957 775.404 689.183C773.436 690.409 771.242 691.022 768.822 691.022C766.402 691.022 764.143 690.409 762.208 689.183ZM772.5 684.86C773.565 684.085 774.403 682.892 775.017 681.278C775.63 679.665 775.92 677.632 775.92 675.148C775.92 672.664 775.63 670.599 775.017 668.986C774.403 667.372 773.565 666.179 772.5 665.404C771.435 664.63 770.209 664.243 768.822 664.243C767.434 664.243 766.144 664.63 765.079 665.404C764.014 666.179 763.176 667.372 762.595 668.986C761.982 670.599 761.691 672.632 761.691 675.148C761.691 677.632 761.982 679.665 762.595 681.278C763.208 682.892 764.014 684.085 765.079 684.86C766.144 685.634 767.402 686.021 768.822 686.021C770.241 686.021 771.435 685.634 772.5 684.86Z" fill="#FCC146"/>
<path d="M788.987 642.271C787.051 641.045 785.503 639.238 784.374 636.883C783.244 634.528 782.664 631.656 782.664 628.268C782.664 624.881 783.244 622.009 784.374 619.654C785.503 617.298 787.051 615.492 788.987 614.266C790.923 613.04 793.117 612.427 795.601 612.427C798.086 612.427 800.247 613.04 802.183 614.266C804.119 615.492 805.668 617.298 806.797 619.654C807.926 622.009 808.475 624.881 808.475 628.268C808.475 631.656 807.926 634.528 806.797 636.883C805.668 639.238 804.151 641.045 802.183 642.271C800.215 643.497 798.021 644.11 795.601 644.11C793.182 644.11 790.923 643.497 788.987 642.271ZM799.28 637.98C800.344 637.205 801.183 636.012 801.796 634.398C802.409 632.785 802.7 630.753 802.7 628.268C802.7 625.784 802.409 623.719 801.796 622.106C801.183 620.493 800.344 619.299 799.28 618.524C798.215 617.75 796.989 617.363 795.601 617.363C794.214 617.363 792.924 617.75 791.859 618.524C790.794 619.299 789.955 620.493 789.374 622.106C788.761 623.719 788.471 625.752 788.471 628.268C788.471 630.785 788.761 632.785 789.374 634.398C789.987 636.012 790.794 637.205 791.859 637.98C792.924 638.754 794.182 639.141 795.601 639.141C797.021 639.141 798.215 638.754 799.28 637.98Z" fill="#FCC146"/>
<path d="M628.053 780.975C626.117 779.749 624.568 777.942 623.439 775.587C622.31 773.231 621.729 770.36 621.729 766.972C621.729 763.584 622.31 760.713 623.439 758.357C624.568 756.002 626.117 754.195 628.053 752.969C629.989 751.743 632.183 751.13 634.667 751.13C637.151 751.13 639.313 751.743 641.249 752.969C643.185 754.195 644.733 756.002 645.863 758.357C646.992 760.713 647.54 763.584 647.54 766.972C647.54 770.36 646.992 773.231 645.863 775.587C644.733 777.942 643.217 779.749 641.249 780.975C639.281 782.201 637.087 782.814 634.667 782.814C632.247 782.814 629.989 782.201 628.053 780.975ZM638.345 776.683C639.41 775.909 640.249 774.715 640.862 773.102C641.475 771.489 641.765 769.456 641.765 766.972C641.765 764.488 641.475 762.423 640.862 760.809C640.249 759.196 639.41 758.003 638.345 757.228C637.28 756.454 636.054 756.067 634.667 756.067C633.28 756.067 631.989 756.454 630.924 757.228C629.86 758.003 629.021 759.196 628.44 760.809C627.827 762.423 627.537 764.455 627.537 766.972C627.537 769.456 627.827 771.489 628.44 773.102C629.053 774.715 629.86 775.909 630.924 776.683C631.989 777.458 633.247 777.845 634.667 777.845C636.087 777.845 637.28 777.458 638.345 776.683Z" fill="#FCC146"/>
<path d="M849.612 780.975C847.676 779.749 846.127 777.942 844.998 775.587C843.869 773.231 843.288 770.36 843.288 766.972C843.288 763.584 843.869 760.713 844.998 758.357C846.127 756.002 847.676 754.195 849.612 752.969C851.548 751.743 853.742 751.13 856.226 751.13C858.71 751.13 860.872 751.743 862.808 752.969C864.744 754.195 866.292 756.002 867.422 758.357C868.551 760.713 869.099 763.584 869.099 766.972C869.099 770.36 868.551 773.231 867.422 775.587C866.292 777.942 864.776 779.749 862.808 780.975C860.84 782.201 858.646 782.814 856.226 782.814C853.806 782.814 851.548 782.201 849.612 780.975ZM859.904 776.683C860.969 775.909 861.808 774.715 862.421 773.102C863.034 771.489 863.324 769.456 863.324 766.972C863.324 764.488 863.034 762.423 862.421 760.809C861.808 759.196 860.969 758.003 859.904 757.228C858.839 756.454 857.613 756.067 856.226 756.067C854.839 756.067 853.548 756.454 852.483 757.228C851.419 758.003 850.58 759.196 849.999 760.809C849.386 762.423 849.096 764.455 849.096 766.972C849.096 769.489 849.386 771.489 849.999 773.102C850.612 774.715 851.419 775.909 852.483 776.683C853.548 777.458 854.806 777.845 856.226 777.845C857.646 777.845 858.839 777.458 859.904 776.683Z" fill="#FCC146"/>
<path d="M774.984 824.951C773.048 823.725 771.499 821.918 770.37 819.562C769.241 817.207 768.66 814.336 768.66 810.948C768.66 807.56 769.241 804.689 770.37 802.333C771.499 799.978 773.048 798.171 774.984 796.945C776.92 795.719 779.114 795.106 781.598 795.106C784.082 795.106 786.244 795.719 788.18 796.945C790.116 798.171 791.664 799.978 792.794 802.333C793.923 804.689 794.471 807.56 794.471 810.948C794.471 814.336 793.923 817.207 792.794 819.562C791.664 821.918 790.148 823.725 788.18 824.951C786.212 826.177 784.018 826.79 781.598 826.79C779.178 826.79 776.92 826.177 774.984 824.951ZM785.276 820.66C786.341 819.885 787.18 818.691 787.793 817.078C788.406 815.465 788.696 813.432 788.696 810.948C788.696 808.464 788.406 806.399 787.793 804.786C787.18 803.172 786.341 801.979 785.276 801.204C784.211 800.43 782.985 800.043 781.598 800.043C780.211 800.043 778.92 800.43 777.855 801.204C776.791 801.979 775.952 803.172 775.371 804.786C774.758 806.399 774.468 808.431 774.468 810.948C774.468 813.432 774.758 815.465 775.371 817.078C775.984 818.691 776.791 819.885 777.855 820.66C778.92 821.434 780.178 821.821 781.598 821.821C783.018 821.821 784.211 821.434 785.276 820.66Z" fill="#FCC146"/>
<path d="M940.371 866.023C938.435 864.797 936.886 862.99 935.757 860.635C934.628 858.279 934.047 855.408 934.047 852.02C934.047 848.632 934.628 845.761 935.757 843.406C936.886 841.05 938.435 839.244 940.371 838.018C942.307 836.792 944.5 836.179 946.985 836.179C949.469 836.179 951.631 836.792 953.567 838.018C955.503 839.244 957.051 841.05 958.18 843.406C959.31 845.761 959.858 848.632 959.858 852.02C959.858 855.408 959.31 858.279 958.18 860.635C957.051 862.99 955.535 864.797 953.567 866.023C951.599 867.249 949.405 867.862 946.985 867.862C944.565 867.862 942.307 867.249 940.371 866.023ZM950.695 861.732C951.76 860.957 952.599 859.764 953.212 858.15C953.825 856.537 954.115 854.505 954.115 852.02C954.115 849.536 953.825 847.471 953.212 845.858C952.599 844.245 951.76 843.051 950.695 842.276C949.63 841.502 948.404 841.115 947.017 841.115C945.63 841.115 944.339 841.502 943.274 842.276C942.21 843.051 941.371 844.245 940.79 845.858C940.177 847.471 939.887 849.504 939.887 852.02C939.887 854.505 940.177 856.537 940.79 858.15C941.403 859.764 942.21 860.957 943.274 861.732C944.339 862.506 945.598 862.893 947.017 862.893C948.437 862.893 949.63 862.506 950.695 861.732Z" fill="#FCC146"/>
<path d="M761.465 866.023C759.529 864.797 757.981 862.99 756.852 860.635C755.722 858.279 755.142 855.408 755.142 852.02C755.142 848.632 755.722 845.761 756.852 843.406C757.981 841.05 759.529 839.244 761.465 838.018C763.401 836.792 765.595 836.179 768.079 836.179C770.564 836.179 772.726 836.792 774.661 838.018C776.597 839.244 778.146 841.05 779.275 843.406C780.404 845.761 780.953 848.632 780.953 852.02C780.953 855.408 780.404 858.279 779.275 860.635C778.146 862.99 776.629 864.797 774.661 866.023C772.693 867.249 770.499 867.862 768.079 867.862C765.66 867.862 763.401 867.249 761.465 866.023ZM771.79 861.732C772.855 860.957 773.693 859.764 774.307 858.15C774.92 856.537 775.21 854.505 775.21 852.02C775.21 849.536 774.92 847.471 774.307 845.858C773.693 844.245 772.855 843.051 771.79 842.276C770.725 841.502 769.499 841.115 768.112 841.115C766.724 841.115 765.434 841.502 764.369 842.276C763.304 843.051 762.466 844.245 761.885 845.858C761.272 847.471 760.981 849.504 760.981 852.02C760.981 854.505 761.272 856.537 761.885 858.15C762.498 859.764 763.304 860.957 764.369 861.732C765.434 862.506 766.692 862.893 768.112 862.893C769.531 862.893 770.725 862.506 771.79 861.732Z" fill="#FCC146"/>
<path d="M643.701 912.193C641.765 910.967 640.217 909.16 639.087 906.805C637.958 904.449 637.377 901.578 637.377 898.19C637.377 894.802 637.958 891.931 639.087 889.576C640.217 887.22 641.765 885.413 643.701 884.187C645.637 882.961 647.831 882.348 650.315 882.348C652.8 882.348 654.961 882.961 656.897 884.187C658.833 885.413 660.382 887.22 661.511 889.576C662.64 891.931 663.189 894.802 663.189 898.19C663.189 901.578 662.64 904.449 661.511 906.805C660.382 909.16 658.865 910.967 656.897 912.193C654.929 913.419 652.735 914.032 650.315 914.032C647.896 914.032 645.637 913.419 643.701 912.193ZM653.994 907.902C655.058 907.127 655.897 905.934 656.51 904.32C657.123 902.707 657.414 900.675 657.414 898.19C657.414 895.706 657.123 893.641 656.51 892.028C655.897 890.415 655.058 889.221 653.994 888.446C652.929 887.672 651.703 887.285 650.315 887.285C648.928 887.285 647.637 887.672 646.573 888.446C645.508 889.221 644.669 890.415 644.088 892.028C643.475 893.641 643.185 895.674 643.185 898.19C643.185 900.675 643.475 902.707 644.088 904.32C644.701 905.934 645.508 907.127 646.573 907.902C647.637 908.676 648.896 909.063 650.315 909.063C651.735 909.063 652.929 908.676 653.994 907.902Z" fill="#FCC146"/>
<path d="M579.948 813.465V808.431H608.114V813.465H579.948Z" fill="#FCC146"/>
<path d="M978.733 854.537V849.504H1006.9V854.537H978.733Z" fill="#FCC146"/>
<path d="M1020.9 900.707V895.674H1049.07V900.707H1020.9Z" fill="#FCC146"/>
<path d="M1123.79 932.229V927.196H1151.96V932.229H1123.79Z" fill="#FCC146"/>
<path d="M1017.64 932.229V927.196H1045.81V932.229H1017.64Z" fill="#FCC146"/>
<path d="M974.473 932.229V927.196H1002.64V932.229H974.473Z" fill="#FCC146"/>
<path d="M932.821 932.229V927.196H960.988V932.229H932.821Z" fill="#FCC146"/>
<path d="M657.995 932.229V927.196H686.161V932.229H657.995Z" fill="#FCC146"/>
<path d="M553.297 932.229V927.196H581.463V932.229H553.297Z" fill="#FCC146"/>
<path d="M700.647 932.229V927.196H728.814V932.229H700.647Z" fill="#FCC146"/>
<path d="M902.396 900.707V895.674H930.562V900.707H902.396Z" fill="#FCC146"/>
<path d="M808.604 854.537V849.504H836.771V854.537H808.604Z" fill="#FCC146"/>
<path d="M593.756 854.537V849.504H621.923V854.537H593.756Z" fill="#FCC146"/>
<path d="M737.978 769.488V764.455H786.438V769.488H737.978Z" fill="#FCC146"/>
<path d="M887.393 769.488V764.455H935.854V769.488H887.393Z" fill="#FCC146"/>
<path d="M1064.04 900.707V895.674H1112.5V900.707H1064.04Z" fill="#FCC146"/>
<path d="M1060.3 932.713V927.68H1108.76V932.713H1060.3Z" fill="#FCC146"/>
<path d="M870.292 932.713V927.68H918.753V932.713H870.292Z" fill="#FCC146"/>
<path d="M807.281 932.713V927.68H855.741V932.713H807.281Z" fill="#FCC146"/>
<path d="M742.817 932.713V927.68H791.278V932.713H742.817Z" fill="#FCC146"/>
<path d="M595.467 932.713V927.68H643.928V932.713H595.467Z" fill="#FCC146"/>
<path d="M491.737 932.713V927.68H540.198V932.713H491.737Z" fill="#FCC146"/>
<path d="M954.277 900.707V895.674H1002.74V900.707H954.277Z" fill="#FCC146"/>
<path d="M834.318 900.707V895.674H882.779V900.707H834.318Z" fill="#FCC146"/>
<path d="M684.548 900.707V895.674H733.009V900.707H684.548Z" fill="#FCC146"/>
<path d="M468.249 900.707V895.674H516.71V900.707H468.249Z" fill="#FCC146"/>
<path d="M853.935 813.465V808.431H902.396V813.465H853.935Z" fill="#FCC146"/>
<path d="M801.958 725.48V720.447H850.418V725.48H801.958Z" fill="#FCC146"/>
<path d="M861.936 725.48V720.447H910.397V725.48H861.936Z" fill="#FCC146"/>
<path d="M921.915 725.48V720.447H970.376V725.48H921.915Z" fill="#FCC146"/>
<path d="M825.575 677.503V672.47H874.035V677.503H825.575Z" fill="#FCC146"/>
<path d="M713.811 659.855L703.099 690.441H697.356L708.068 659.855H713.811Z" fill="#FCC146"/>
<path d="M762.724 615.04L765.241 617.653H756.207V612.846H768.467V643.723H762.724" fill="#FCC146"/>
<path d="M612.405 882.897L601.694 913.483H595.951L606.662 882.897H612.405Z" fill="#FCC146"/>
<path d="M563.686 882.897L552.974 913.483H547.231L557.943 882.897H563.686Z" fill="#FCC146"/>
<path d="M774.887 882.897L764.176 913.483H758.433L769.144 882.897H774.887Z" fill="#FCC146"/>
<path d="M758.627 602.489C757.207 574.032 737.236 548.995 711.037 538.574C709.747 538.187 710.392 536.09 711.683 536.574C740.075 546.124 762.176 571.806 765.306 601.876C765.887 606.522 758.917 607.2 758.627 602.489Z" fill="#FCC146"/>
<path d="M717.877 547.737C745.754 572.645 749.722 614.007 741.108 648.53C740.043 653.176 733.138 651.369 734.493 646.756C744.205 614.136 742.076 574.323 716.522 549.35C715.425 548.543 716.78 546.769 717.845 547.705L717.877 547.737Z" fill="#FCC146"/>
<path d="M711.037 646.239C720.394 621.235 725.491 593.391 719.748 566.966C719.329 565.676 721.329 564.966 721.749 566.321C725.62 579.775 726.04 593.713 725.201 607.587C724.136 621.461 721.2 635.108 716.973 648.337C716.49 650.014 714.715 650.95 713.07 650.466C711.263 649.95 710.327 647.95 711.037 646.207V646.239Z" fill="#FCC146"/>
</svg>