<svg width="826" height="1192" viewBox="0 0 826 1192" fill="none" xmlns="http://www.w3.org/2000/svg">
<path d="M422.806 1.36482C426.581 3.55878 431.84 9.68898 425.903 17.0775C414.998 30.5961 398.769 38.0814 389.864 53.6327C378.83 72.959 376.055 116.483 376.023 120.387C376.023 121.323 376.023 122.259 376.023 123.194C376.088 126.453 376.475 129.357 376.733 132.26C376.83 133.487 376.507 138.229 376.733 138.552C376.733 139.584 377.12 140.327 378.12 140.649C378.282 141.004 383.444 143.521 384.734 144.844C386.864 147.005 387.767 150.651 390.961 151.877L425.839 159.491C449.198 146.683 469.17 129.002 491.916 115.257C508.822 105.03 548.023 83.348 567.382 89.2201C570.898 90.2848 576.577 93.5435 577.513 97.2216C577.868 98.5444 579.416 107.417 579.771 107.869L580.481 109.256C580.352 111.16 580.352 113.612 580.481 115.548L579.771 116.935C579.352 117.516 577.061 127.744 576.093 130.357C566.349 156.62 559.542 174.043 538.247 193.014C526.277 203.661 499.595 224.052 485.786 231.279C473.719 237.571 457.071 240.797 444.649 247.411C440.164 248.508 440.39 244.637 442.455 242.055C448.198 234.893 468.169 230.085 476.913 226.633C492.238 220.6 537.215 185.787 547.959 172.784C554.573 164.783 572.221 124.42 572.705 114.515C573.738 93.8984 557.186 94.221 542.216 100.093C524.148 107.191 487.722 132.809 475.719 148.038C471.202 153.781 467.331 160.653 463.007 166.751C458.684 172.849 450.263 180.302 449.843 188.529C449.585 193.111 452.65 198.112 451.973 202.822C455.457 199.499 457.684 196.144 462.168 193.82C463.943 192.917 466.072 192.659 467.782 191.788C476.042 187.561 484.108 182.689 493.819 182.593C493.884 181.56 491.303 181.367 490.593 181.302C486.431 180.85 482.624 181.367 478.623 182.431C476.784 182.915 463.33 189.078 466.943 181.915C467.137 181.528 472.461 176.946 473.267 176.366C481.882 169.848 495.658 165.493 506.402 167.267C507.725 168.493 502.144 170.816 501.498 171.074C497.368 172.817 492.529 173.623 488.27 174.946C488.076 175.946 489.044 175.688 489.786 175.849C493.4 176.72 506.177 178.753 503.273 184.69C501.821 187.658 495.82 186.497 492.981 186.98C487.818 187.852 482.785 189.465 477.784 190.981C478.429 192.756 482.333 191.723 481.979 194.466C474.784 195.821 466.524 196.595 460.716 201.467C458.264 203.5 456.006 207.791 453.747 209.178C452.618 209.856 451.037 209.662 450.682 209.953C450.36 210.211 449.037 216.405 448.488 217.857C445.907 224.697 442.842 229.053 439.293 235.183C438.68 236.248 436.744 240.926 436.486 241.12C435.873 241.539 434.582 241.12 433.84 241.217L432.453 240.507C430.324 234.602 438.422 225.956 440.939 220.051C442.487 216.438 443.165 212.63 444.358 208.952C444.617 208.178 446.165 208.791 445.681 205.629L446.391 204.242C447.294 203.113 444.52 189.078 445.004 185.4C445.068 185.012 447.811 179.108 448.198 178.463C453.425 169.332 462.459 160.427 468.073 150.877C468.46 150.199 469.428 148.973 468.395 148.425C457.974 157.039 450.65 169.235 444.681 181.237C444.133 182.334 444.358 183.98 443.616 185.432C440.293 192.046 431.872 208.113 425.419 211.533C423.258 212.695 419.096 212.889 419.967 209.63C420.225 208.63 428.259 201.306 429.969 198.628C439.487 183.754 443.358 162.782 458.264 150.522L461.039 146.328C459.49 146.166 458.619 147.65 457.555 148.425C446.875 156.104 435.583 162.911 423.742 168.622C413.03 164.46 398.963 163.008 388.703 158.33C383.508 155.975 377.088 143.521 372.797 143.585C369.957 143.617 369.054 146.102 364.053 143.908C362.053 143.037 362.44 142.037 361.278 140.746C361.375 139.391 361.472 137.649 359.891 137.261C356.277 136.358 349.179 139.649 344.888 140.036C342.501 140.262 341.178 140.036 338.951 139.359L338.242 137.971C338.371 137.584 338.113 136.874 338.242 136.584C338.403 136.229 340.21 135.939 339.629 134.487C338.564 134.035 337.855 135.132 337.532 135.197C328.24 136.713 329.498 137.907 322.658 141.617C318.786 143.747 309.333 148.07 305.074 149.877C301.88 151.232 298.105 151.49 295.008 153.071C293.072 154.071 290.652 157.072 289.555 157.394C285.587 158.556 279.876 156.523 276.488 156.846C275.004 156.975 273.907 158.201 272.584 158.588C266.712 160.298 267.97 158.459 263.55 157.168C259.743 156.071 255.742 156.588 252.096 156.071C249.677 155.749 245.902 153.877 244.321 153.974C243.708 154.007 240.998 157.233 239.771 158.233C238.675 159.137 236.868 159.588 236.287 161.008C237.448 161.105 238.642 160.911 239.771 161.008C243.127 161.331 244.514 161.75 241.32 164.492C238.126 167.235 233.48 166.493 229.77 168.784C226.672 170.719 224.575 175.624 222.026 177.075C219.832 178.301 217.961 177.237 216.057 178.076C215.767 178.205 212.444 181.915 211.863 182.625C209.895 182.625 206.12 182.238 205.571 184.012C206.733 184.012 207.895 184.077 209.056 184.012C209.895 187.948 205.926 189.981 204.474 193.046C200.506 201.338 207.862 206.855 202.442 217.535C199.119 224.117 190.73 235.28 189.698 242.475C188.052 253.606 188.407 266.737 188.826 277.869C188.859 279.127 188.084 280.385 188.149 281.998C188.342 286.967 193.44 283.515 196.183 283.192C200.732 282.611 204.604 283.676 208.282 286.322C211.669 288.742 222.542 300.97 224.188 304.616C224.704 305.777 225.059 306.971 225.059 308.261C224.736 308.294 224.446 308.649 224.349 308.971C221.252 308.036 220.252 309.52 218.413 304.777C216.09 305.745 216.928 313.23 209.379 315.973C195.376 321.103 179.405 310.746 181.825 295.388C182.148 293.291 183.858 291.452 183.922 289.032C184.019 285.87 182.728 281.03 182.825 277.546L169.048 266.221C162.854 265.35 155.465 262.479 149.754 259.672C148.399 259.026 146.464 256.897 145.689 256.736C143.108 256.123 139.882 258.575 135.236 256.058C127.815 251.993 138.139 249.508 142.366 249.605C144.173 249.637 152.303 252.444 150.045 249.637C148.367 247.54 140.882 243.056 138.172 241.249C105.101 219.148 58.9954 195.885 18.8588 196.627C15.0194 196.692 11.1477 196.531 7.30827 196.595C6.50167 208.146 12.7932 218.47 19.5686 227.246C45.6703 260.962 70.0298 278.094 113.715 282.418C137.042 284.709 148.819 282.644 170.726 292.71C171.017 292.839 174.727 292.71 176.34 293.581C177.437 294.162 178.889 297.582 175.856 297.034C173.533 296.614 170.758 295.033 167.919 294.485C140.108 288.935 111.586 291.904 84.1937 283.999C52.3168 274.803 33.9262 257.607 13.987 232.086C4.63035 220.116 -1.46758 209.243 0.306953 193.433C1.37167 183.98 7.24374 184.851 14.9549 184.722C15.8583 184.722 17.2779 185.077 17.7619 184.012C22.182 185.109 29.1834 185.012 33.7971 184.722C34.1198 185.625 35.12 185.4 35.8943 185.432C37.8624 185.529 40.2177 185.561 42.1858 185.432L43.5732 186.142C43.9604 186.432 51.7037 186.722 53.5105 187.013C93.7762 193.982 132.977 204.564 171.726 217.438C172.759 217.793 172.694 218.793 173.178 218.922C174.146 219.148 180.373 218.599 180.373 218.244V206.726C180.373 204.952 182.341 199.499 183.535 198.015C184.019 197.434 191.246 191.304 191.859 190.981C195.215 189.045 197.473 189.884 196.118 193.853C194.569 198.402 186.987 200.628 185.632 202.919C184.955 204.048 183.987 209.372 183.858 210.92C183.567 214.534 185.181 220.761 183.471 223.116C181.47 225.827 176.147 225.568 173.081 225.181C164.951 224.084 149.851 218.987 141.269 216.502C110.037 207.533 79.4832 195.563 47.0577 191.046L59.06 195.434C89.0656 204.339 125.169 222.794 150.271 241.7C161.757 250.38 171.759 261.059 183.148 269.899C184.084 259.091 183.632 247.96 187.536 237.635C190.311 230.247 198.957 218.212 199.861 210.856C200.409 206.371 198.344 202.629 198.473 198.337C198.57 195.111 200.216 192.691 200.603 189.626C195.86 189.981 197.602 186.077 196.408 186.142C196.376 185.916 196.408 184.496 196.408 184.044C204.7 152.393 191.504 114.322 173.727 98.9316C165.306 91.6399 150.303 89.3814 144.463 80.7346C143.592 79.4441 143.495 77.4114 143.398 77.2824C142.527 68.9259 149.238 61.5052 164.08 59.9243C165.145 59.9565 178.082 57.4076 192.408 62.1505C209.346 67.7322 226.575 95.9633 235.416 111.257C238.61 116.806 252.032 145.682 255.775 147.392C260.001 149.328 263.615 146.715 267.906 147.134C272.778 147.586 280.457 151.909 285.264 151.135C287.49 150.78 290.491 147.715 292.781 146.715C295.943 145.327 302.299 144.618 304.848 142.908C306.591 141.746 306.881 139.584 310.462 137.874C314.044 136.164 316.238 136.616 319.303 135.906C321.529 135.39 320.625 130.228 320.69 128.227C320.819 123.743 322.11 109.514 322.271 108.546C329.143 72.1846 348.405 23.7884 382.863 7.23689C406.416 -4.08782 421.935 1.17123 422.58 1.52614L422.806 1.36482ZM393.478 7.3337C402.867 8.88237 409.094 15.6256 412.675 24.0788C438.841 6.55935 416.869 -0.764612 396.414 5.75275C395.575 6.01086 393.478 6.26898 393.478 7.3337ZM395.575 38.0492C397.156 35.9843 408.416 28.4022 408.739 27.1116C409.771 23.0786 402.512 15.1416 398.995 13.3671C386.154 6.7852 376.959 14.0124 367.667 22.3688C378.604 22.5301 391.574 26.9826 395.575 38.0492ZM386.832 50.5677C387.186 50.1805 392.252 42.6629 392.445 42.179C393.22 40.4044 388.38 33.9194 386.832 32.4352C382.089 27.9505 368.602 23.7561 362.795 27.2407C361.827 27.8214 352.761 39.985 352.277 41.1465C351.793 42.308 354.342 40.7271 359.568 41.4692C366.795 42.4694 377.572 44.6633 383.508 48.9867C384.347 49.5997 386.186 51.1484 386.767 50.5354L386.832 50.5677ZM378.798 72.9267L384.089 54.7943C376.12 48.1156 363.698 44.8892 353.341 45.728C350.405 45.9539 348.921 46.212 348.598 46.7928C347.921 48.1156 339.177 65.2478 339.016 66.3126C338.822 67.4095 338.919 67.4741 339.952 67.2482C347.082 65.8609 351.438 65.022 358.826 66.0222C362.182 66.4739 366.215 67.5386 369.377 68.7324C371.054 69.3454 378.152 73.4752 378.765 72.9267H378.798ZM177.147 63.1829C168.532 63.2797 159.079 63.8605 151.787 68.8614C139.398 77.4114 156.401 85.4775 164.564 86.8971C163.338 76.5403 169.661 69.2486 177.115 63.1829H177.147ZM179.921 97.3507C181.406 90.059 188.73 81.4122 195.505 78.3794C199.796 76.4435 207.604 77.2178 202.281 71.862C199.925 69.5067 189.794 64.6348 186.536 64.538C175.663 64.1509 165.79 79.0569 167.338 89.2201L179.921 97.3507ZM376.604 77.2178C366.537 71.1522 350.47 67.0869 339.145 71.3135C333.596 73.3784 332.402 86.5099 329.95 91.769C340.339 89.2846 351.535 88.7039 362.085 90.7043C366.15 91.4786 369.861 93.4144 373.926 93.8984C373.539 90.801 377.798 79.1537 376.604 77.2501V77.2178ZM219.703 95.9633C219.865 95.1567 219.606 94.6082 219.316 93.8984C218.961 93.0273 213.508 85.0258 212.605 83.8643C211.798 82.8641 207.701 78.6375 206.83 78.5729C205.442 78.5084 199.893 80.4765 198.28 81.1863C190.924 84.445 184.374 91.8335 182.696 99.7705L192.15 112.031C193.118 111.87 198.538 105.32 200.151 103.965C205.571 99.4479 212.573 96.3182 219.703 95.931V95.9633ZM371.829 116.193L373.216 100.513L372.571 99.0284C366.828 93.1563 331.434 91.6077 328.53 97.1571C327.627 98.8671 324.4 115.451 325.046 116.161C339.758 110.224 357.213 109.127 371.796 116.161L371.829 116.193ZM232.964 116.193C233.706 115.644 224.575 100.997 223.543 100.158C220.155 97.3507 207.798 103.029 204.41 105.449C201.022 107.869 194.247 114.16 194.537 118.645C194.634 120.129 199.054 131.131 200.022 132.777C200.28 133.228 200.022 134.132 201.216 133.648C202.41 133.164 206.152 127.873 207.862 126.324C214.38 120.42 224.123 115.999 232.996 116.193H232.964ZM324.4 121.42C323.594 124.227 324.981 130.389 324.4 133.616C340.436 128.937 356.697 132.196 372.538 135.713C373.022 135.229 371.796 123.162 371.183 122.065C367.505 115.612 350.276 115.031 343.662 115.548C340.532 115.806 325.239 118.419 324.368 121.387L324.4 121.42ZM235.642 120.516C224.446 118.387 209.54 126.969 204.023 136.487C201.184 141.359 206.184 153.394 205.055 159.491C215.864 149.522 228.511 139.939 243.45 137.842C244.998 136.326 236.029 123.356 235.642 120.516ZM249.031 147.586C246.902 141.23 246.902 140.746 240.514 142.23C230.738 144.489 217.574 152.587 210.282 159.459C203.668 165.686 205.184 168.654 203.184 176.785C202.571 179.269 201.603 181.463 200.861 183.883L233.286 160.847C236.222 157.523 240.32 154.49 243.127 151.135C243.901 150.199 244.03 148.586 244.256 148.425C244.676 148.07 247.967 148.231 249.031 147.586ZM46.6383 190.175C43.7345 189.82 43.7345 191.207 46.6383 190.852V190.175ZM151.658 250.863V251.573C152.11 251.347 152.11 251.122 151.658 250.863ZM213.412 301.099C212.347 293.484 203.539 288.709 196.279 289.226C190.956 289.58 190.214 291.226 191.117 296.55C191.924 301.26 196.408 301.389 199.441 303.583C200.409 304.293 200.732 305.938 201.313 306.067C205.475 306.971 208.54 298.679 213.412 301.131V301.099Z" fill="#FCC146"/>
<path d="M376.023 423.219V425.316C377.055 425.154 377.345 424.122 377.41 423.219C378.088 423.122 378.83 423.283 379.507 423.219C380.056 424.025 381.088 423.702 381.604 423.928C383.766 424.767 383.443 424.832 383.701 427.413C383.766 428.09 383.701 428.8 383.701 429.51C383.766 431.575 383.766 433.704 383.701 435.802C383.701 435.995 383.056 437.77 382.992 439.286C382.121 464.033 377.41 480.262 358.213 497.168C351.341 503.234 344.017 506.75 335.563 510.106C362.246 542.564 385.25 577.893 407.028 613.771C431.13 653.552 451.811 695.302 475.009 735.6C489.302 760.443 504.014 785.545 524.664 805.613C525.696 806.613 526.535 808.549 528.148 809.098C528.89 807.065 527.116 805.839 526.761 804.903C526.406 803.968 525.502 800.225 525.373 800.032L526.083 799.322C529.051 802.226 533.698 806.033 535.859 809.775C535.956 809.937 537.15 812.905 537.247 813.26C537.472 813.97 537.956 815.422 537.956 816.067C536.569 816.035 535.762 816.744 535.859 818.164C535.569 818.551 537.408 822.681 537.634 823.746C537.827 824.681 537.44 825.649 537.634 826.585C538.311 830.489 540.989 836.716 538.021 840.2C536.504 841.975 536.279 840.878 535.182 840.523L534.472 839.136C534.569 838.039 534.536 836.748 534.472 835.651C534.44 834.877 534.698 833.909 533.762 833.554C533.827 833.135 533.827 831.521 533.762 831.457L533.052 830.069C533.052 827.101 526.438 815.422 524.276 812.679C520.437 807.775 514.565 803.419 510.338 798.709C488.883 774.769 474.073 747.602 458.264 719.597C422.451 656.198 388.993 591.541 346.017 532.497L328.143 511.267C318.56 509.525 309.946 511.687 300.299 508.428C293.91 506.266 284.973 497.297 280.392 492.038C279.037 490.489 272.616 482.939 274.165 481.197C275.262 481.423 276.843 481.617 277.811 482.101C280.392 483.359 293.62 496.523 295.814 499.362C295.975 499.588 298.298 501.298 298.621 501.459C302.589 503.524 325.852 504.266 325.852 504.266C345.178 505.621 363.085 485.037 370.409 468.937C371.957 465.517 374.861 457.451 374.7 454.031L375.41 452.643C375.7 452.256 375.345 444.513 375.41 442.867C375.506 440.286 376.539 437.705 375.764 435.189C374.474 437.447 374.829 440.544 374.022 442.867C373.216 445.19 366.666 456.031 364.956 457.87C364.311 458.58 363.956 459.129 362.859 458.903C364.02 451.256 372.957 440.964 371.086 432.898C370.796 431.575 369.247 430.575 369.441 429.575C369.505 429.22 373.054 423.864 373.345 423.703C374.313 423.089 375.184 423.444 376.119 423.348L376.023 423.219ZM528.503 809.808V810.517C528.955 810.292 528.955 810.066 528.503 809.808Z" fill="#FCC146"/>
<path d="M817.074 873.303C818.397 887.145 813.751 912.569 812.234 926.733C811.847 930.411 810.395 938.638 810.815 941.703C810.137 941.897 810.169 942.51 810.105 943.091C809.75 948.253 807.491 958.61 808.008 962.643L807.298 964.03C807.298 964.03 807.233 966.353 807.298 966.837L806.588 968.225C806.265 968.676 805.136 978.581 805.201 979.388L804.491 980.775C804.2 981.163 803.039 989.777 803.103 990.551L802.394 991.939C802.394 991.939 802.361 993.584 802.394 994.036L801.684 995.423C801.49 995.681 800.942 1001.04 800.974 1001.71L800.264 1003.1C799.974 1003.46 798.78 1011.33 798.877 1012.17L798.167 1013.56C798.167 1013.56 798.135 1015.2 798.167 1015.65L797.457 1017.04C797.457 1017.04 797.425 1018.69 797.457 1019.14L796.747 1020.52C796.747 1020.52 796.715 1022.17 796.747 1022.62L796.038 1024.01C795.747 1024.4 794.586 1033.01 794.65 1033.79L793.94 1035.17C793.94 1035.17 793.908 1036.82 793.94 1037.27L793.231 1038.66C792.811 1039.24 791.037 1051.6 791.133 1052.63L790.424 1054.01C790.23 1054.27 789.682 1059.63 789.714 1060.31L789.004 1061.69C788.81 1061.95 788.262 1067.31 788.294 1067.99L787.584 1069.37C787.262 1069.79 786.132 1079.12 786.197 1079.83L785.487 1081.21C785.487 1081.21 785.423 1083.54 785.487 1084.02L784.777 1085.41C784.455 1085.86 783.261 1095.6 783.39 1096.57L782.68 1097.96C782.68 1097.96 782.616 1100.28 782.68 1100.77L781.97 1102.15C781.97 1102.15 781.874 1104.86 781.97 1104.96C782.229 1105.99 783.035 1106.35 784.068 1106.35C789.94 1114.96 797.102 1126.42 801.877 1135.61C804.781 1141.19 806.62 1147.94 810.008 1153.29C813.815 1159.29 818.945 1163.07 822.688 1169.91C823.882 1172.07 824.269 1174.94 825.204 1176.81L824.495 1177.52C822.591 1174.75 818.687 1169.62 816.493 1167.04C813.589 1163.65 808.717 1160.94 806.362 1157.65C801.716 1151.16 798.522 1139.74 793.811 1132.87L792.424 1130.77C789.068 1125.58 785.294 1120.32 782.648 1114.74C782.035 1113.45 782.325 1111.03 780.551 1110.54C780.809 1111.96 779.905 1113.48 779.841 1114.74C779.776 1115.64 779.776 1116.64 779.841 1117.54L779.131 1118.93C779.131 1118.93 779.067 1121.25 779.131 1121.74L778.421 1123.12C778.421 1123.12 778.357 1125.45 778.421 1125.93L777.712 1127.32C777.712 1127.32 777.647 1129.64 777.712 1130.13L777.002 1131.51C777.002 1131.51 776.937 1133.84 777.002 1134.32L776.292 1135.71C776.292 1135.71 776.227 1138.03 776.292 1138.51L775.582 1139.9C775.356 1140.22 774.808 1146.81 774.872 1147.58L774.162 1148.97C773.937 1149.29 773.517 1155.52 773.291 1156.81C771.323 1166.81 769.162 1179.33 766.322 1188.94C765.774 1190.75 765.258 1190.56 764.386 1191.56C763.677 1191.56 762.999 1191.56 762.289 1191.56C762.063 1191.56 761.805 1191.56 761.579 1191.56L760.87 1190.17C761.289 1188.62 761.709 1186.17 761.579 1184.59C762.483 1184.27 762.225 1183.27 762.289 1182.49C762.322 1181.59 762.354 1180.59 762.289 1179.68L762.999 1178.3C763.806 1177.2 763.386 1168.65 763.644 1166.75C763.806 1165.46 764.935 1165.84 765.064 1165.26C765.322 1164.13 765.903 1158.49 765.774 1157.36L766.484 1155.97C766.71 1155.68 766.322 1153.32 766.484 1152.49C766.806 1150.58 767.645 1148.19 767.871 1146.19C768.097 1144.19 768.774 1140.19 768.581 1138.51L769.291 1137.13C769.775 1136.48 771.485 1122.19 771.388 1121.09L772.098 1119.7C772.291 1119.41 772.84 1113.38 772.807 1112.74L773.517 1111.35C773.517 1111.35 773.582 1109.03 773.517 1108.54L774.227 1107.15C774.227 1107.15 774.292 1104.83 774.227 1104.35L774.937 1102.96C774.937 1102.96 775.001 1100.64 774.937 1100.15L775.647 1098.77C775.647 1098.77 775.711 1096.51 775.647 1095.96C776.55 1095.64 776.324 1094.64 776.356 1093.86C776.356 1093.18 776.421 1092.44 776.356 1091.76L777.066 1090.38C777.066 1090.38 777.131 1088.05 777.066 1087.57L777.776 1086.18C777.776 1086.18 777.841 1083.86 777.776 1083.38L778.486 1081.99C778.808 1081.57 779.97 1072.37 779.873 1071.53L780.583 1070.15C780.583 1070.15 780.648 1067.82 780.583 1067.34L781.293 1065.95C781.293 1065.95 781.357 1063.63 781.293 1063.15L782.003 1061.76C782.196 1061.5 782.745 1056.14 782.713 1055.47L783.422 1054.08C784.068 1053.24 786.971 1034.33 786.907 1033.14L787.617 1031.75C787.907 1031.37 789.069 1022.75 789.004 1021.98L789.714 1020.59C789.714 1020.59 789.746 1018.94 789.714 1018.49L790.424 1017.1C790.424 1017.1 790.456 1015.46 790.424 1015.01L791.133 1013.62C792.005 1012.46 793.166 996.294 793.973 993.229C794.166 992.52 795.779 993.1 795.328 989.906L796.038 988.519C796.328 988.132 797.489 979.356 797.425 978.743L798.135 977.355C798.683 976.613 801.006 960.288 800.942 959.223L801.652 957.836C802.329 956.9 803.491 938.606 804.491 934.638C804.652 933.96 806.394 934.315 805.846 930.605L806.556 929.217C806.556 929.217 806.62 926.894 806.556 926.41L807.265 925.023C807.265 925.023 807.33 922.7 807.265 922.216L807.975 920.829C807.975 920.829 808.04 918.57 807.975 918.022C808.879 917.699 808.621 916.699 808.685 915.924C808.717 915.021 808.75 914.021 808.685 913.117L809.395 911.73C809.395 911.73 809.459 909.407 809.395 908.923L810.105 907.536C810.331 907.245 810.008 901.728 810.202 900.276C810.782 895.598 812.589 891.146 813.525 886.854C814.654 881.692 815.331 876.401 816.396 871.239C816.396 871.335 816.945 871.948 817.106 873.336L817.074 873.303Z" fill="#FCC146"/>
<path d="M603.518 863.527C609.938 891.694 624.199 905.955 646.074 922.829C646.203 922.926 645.881 924.926 648.526 924.926C650.075 922.539 647.558 922.958 647.494 922.829C647.333 922.571 646.59 916.763 646.784 916.537C649.946 915.602 650.656 918.28 651.914 919.086C657.754 922.764 661.142 926.475 664.497 932.669C665.723 934.96 669.369 945.962 669.95 946.414C670.95 947.253 672.595 945.511 673.983 948.995C675.693 953.351 673.854 956.384 674.047 960.03C674.144 962.094 675.402 966.966 675.854 969.451C678.629 984.486 678.403 1000.97 678.242 1016.69C678.177 1022.4 676.596 1026.14 678.564 1032.37C682.501 1044.66 683.436 1046.79 684.501 1060.27C684.533 1060.86 684.501 1061.47 685.211 1061.66C684.436 1072.86 684.985 1086.57 685.211 1097.96C685.211 1098.86 684.856 1100.28 685.921 1100.77C685.727 1103.77 685.759 1107.51 685.921 1110.54C685.985 1112.06 686.598 1113.74 686.63 1114.03C686.888 1117.99 687.276 1121.9 687.34 1125.9C687.34 1126.8 686.985 1128.22 688.05 1128.71C687.76 1133.13 687.985 1138.19 688.05 1142.68C688.05 1144 687.566 1146.1 688.76 1146.87C688.373 1153.52 688.373 1162.55 688.76 1169.2C687.598 1169.97 688.082 1172.07 688.05 1173.39C687.985 1177.33 688.76 1182.81 686.566 1186.2C684.662 1189.1 682.63 1188.27 681.242 1185.46C679.435 1181.75 680.371 1164.16 680.371 1158.74C680.371 1155.2 680.371 1150.61 680.371 1146.87C680.339 1141.77 680.403 1136.61 680.371 1131.51C680.371 1130 680.887 1127.58 679.661 1126.64C679.726 1125.38 679.919 1118.61 679.661 1118.25L678.951 1116.87C679.113 1114.32 679.597 1096.76 678.951 1095.93L678.242 1094.54C678.951 1084.25 678.919 1068.95 678.242 1058.6C677.564 1048.43 673.499 1040.14 673.37 1029.62C673.37 1028.49 673.789 1026.72 672.66 1026.14C672.724 1025.24 672.66 1024.27 672.66 1023.33C673.886 1022.4 673.337 1019.98 673.37 1018.46C673.402 1015.3 673.596 1011.78 673.37 1008.68C674.273 1008.36 674.047 1007.36 674.08 1006.59C674.273 1001.81 674.144 996.746 674.08 991.939C674.08 990.81 674.499 989.035 673.37 988.454C673.531 986.034 673.467 983.227 673.37 980.775C673.37 980.001 673.563 979.033 672.66 978.678C672.724 978.001 672.789 974.645 672.66 974.484L671.95 973.097C671.982 972.484 672.047 969.741 671.95 969.612L671.24 968.225C671.724 965.03 670.111 965.644 669.885 964.901C666.756 954.254 664.949 941.929 658.657 932.637C658.431 932.315 658.012 928.507 657.27 932.637C656.754 932.766 656.205 933.283 655.463 933.315C652.914 933.379 642.17 928.056 639.46 926.378C625.909 918.022 609.616 899.986 604.099 884.983C603.26 882.757 601.84 873.142 601.453 872.626L600.743 871.239C600.84 869.69 600.517 867.786 600.743 866.367C601.034 864.56 601.582 862.914 603.55 863.56L603.518 863.527Z" fill="#FCC146"/>
<path d="M227.383 309.487C229.157 311.165 230.609 311.391 232.158 314.133C235.287 319.715 238.901 343.3 239.288 350.334C239.385 352.173 238.352 353.56 238.707 355.69C239.32 359.594 244.031 368.144 245.58 372.596C251.613 390.212 254.388 407.183 258.743 425.025C261.195 435.124 264.873 444.803 267.455 454.708C268.293 457.935 268.939 467.066 270.616 469.55C271.262 470.518 272.94 469.679 273.488 469.969C283.232 474.777 285.393 476.196 296.525 479.036C322.594 485.682 331.757 482.197 353.019 466.775C355.503 464.968 357.149 461.29 360.73 461.581C361.15 465.097 358.633 467.033 356.536 469.26C355.987 469.84 342.404 483.649 330.725 487.069C316.109 491.36 290.362 487.553 277.682 479.036C276.779 478.423 274.553 476.454 273.488 475.551C270.455 472.97 264.035 467.517 262.841 463.484C262.131 461.097 263.099 459.903 262.357 457.741C260.486 452.224 252.871 439.48 249.838 433.898C242.998 421.283 239.256 407.377 233.642 394.407C229.383 384.534 226.027 374.661 220.284 365.046C213.961 354.464 196.732 332.75 195.99 321.296C195.925 320.36 196.022 319.425 195.99 318.489C196.828 318.231 197.893 318.36 198.7 317.844C210.153 341.106 228.157 360.497 236.062 385.502L249.774 422.347L252.484 422.444C249.645 404.473 242.418 387.793 238.159 370.144C236.32 362.465 233.739 351.431 233.642 344.3C233.642 343.171 234.061 341.397 232.932 340.816C232.996 340.042 233.093 336.138 232.932 335.944L232.222 334.557C232.319 333.427 232.254 332.201 232.222 331.072C232.222 330.298 232.448 329.33 231.512 328.975C231.577 328.394 231.609 325.62 231.512 325.49L230.803 324.103C230.867 323.619 230.899 321.425 230.803 321.296L230.093 319.909C229.996 318.296 228.221 316.747 227.641 315.037C227.286 314.004 226.802 311.359 226.608 310.133C226.576 309.842 226.899 309.294 227.318 309.423L227.383 309.487ZM251.807 426.026C252.613 428.929 253.355 431.801 254.936 434.414C254.872 431.704 254.291 428.542 253.194 426.026C252.774 425.058 253.097 423.961 251.452 423.928C250.226 423.928 251.774 425.929 251.807 426.026Z" fill="#FCC146"/>
<path d="M454.2 252.283C454.781 252.251 455.426 252.348 455.587 252.993C454.652 253.929 452.716 256.09 452.103 257.187C451.038 259.059 451.715 258.155 452.103 259.284C453.425 263.059 456.813 268.802 459.072 272.222C480.85 304.906 514.469 316.166 548.25 332.363C555.412 334.331 563.608 335.428 571.028 334.557C574.352 334.17 581.482 330.427 583.999 332.524L583.289 333.911C581.966 334.653 581.224 335.912 580.03 336.589C574.319 339.751 568.092 339.977 561.639 340.203C559.962 339.332 559.768 339.654 558.155 339.493C547.508 338.493 548.605 337.525 539.797 333.782C515.179 323.297 494.949 317.683 475.139 298.647C463.976 287.903 451.328 276.933 449.296 260.64C448.231 260.349 448.134 260.93 447.553 261.317C445.843 262.479 437.132 272.158 436.874 273.642C438.713 277.481 441.875 294.807 439.423 297.453C439.326 297.55 437.197 298.163 437.068 298.163C436.164 298.034 436.293 296.485 436.067 296.195V293.388C436.067 290.613 436.229 275.836 435.358 274.545C435.358 273.513 434.97 272.739 433.97 272.448C433.97 272.222 433.97 271.964 433.97 271.738C433.97 271.029 433.97 270.351 433.97 269.641C437.293 264.511 445.94 255.51 451.748 252.832C452.78 252.348 453.071 252.283 454.2 252.186V252.283Z" fill="#FCC146"/>
<path d="M402.545 196.434C406.094 201.08 406.965 205.694 409.998 210.211C411.127 211.888 413.805 213.921 415.063 215.631C422.71 226.052 427.614 235.635 425.485 249.057C424.936 252.444 424.904 252.283 422.065 252.961C421.839 252.444 420.71 252.348 420.677 252.251C420.387 251.573 420.71 247.96 420.677 246.669C420.194 229.698 416.354 230.505 409.224 217.277C407.32 213.727 401.932 202.467 401.835 199.209C401.803 198.305 401.545 196.886 402.545 196.402V196.434Z" fill="#FCC146"/>
<path d="M419.289 246.701C419.806 248.605 419.999 250.025 420.677 252.283C420.87 252.896 421.258 253.348 421.387 253.671C423.774 260.865 421.677 268.931 415.966 273.9C414.514 275.158 412.675 275.707 411.288 276.707C408.965 278.385 407.481 280.934 403.964 281.579C402.931 281.773 400.221 281.708 399.092 281.579C397.866 281.418 393.543 280.159 392.317 279.611C390.768 278.933 387.219 275.481 386.896 275.449C382.702 275.094 382.089 287.064 381.153 289.097C380.508 290.452 378.669 290.742 378.282 291.807C377.12 295.194 380.218 305.616 378.217 307.1C375.023 309.455 375.313 302.454 374.7 301.841L373.991 300.454C374.12 298.679 374.023 296.679 373.991 294.872C373.991 293.968 374.345 292.549 373.281 292.065C373.41 290.161 373.41 287.709 373.281 285.773L373.991 284.386C374.12 284.225 374.023 280.966 373.991 280.192C375.152 279.708 374.507 278.224 374.7 277.385C375.378 274.158 378.54 266.028 379.959 262.737C385.089 250.864 397.995 236.022 412.385 240.765C414.676 241.507 418.741 244.411 419.354 246.701H419.289ZM390.962 263.156C394.188 266.124 397.963 269.351 402.673 268.867C410.772 268.06 415.74 260.317 415.805 252.574C415.869 246.734 406.739 246.25 402.351 247.573C395.866 249.541 392.833 254.445 389.252 259.446C388.768 260.156 387.896 259.897 387.864 259.962C387.703 260.22 390.413 262.672 390.929 263.156H390.962Z" fill="#FCC146"/>
<path d="M542.118 643.712C542.151 644.293 542.118 644.906 542.828 645.099C542.764 645.938 542.667 649.778 542.828 649.971L543.538 651.358C543.506 651.971 543.441 654.714 543.538 654.843L544.248 656.23C544.183 656.714 544.151 658.908 544.248 659.037L544.958 660.425C544.215 668.458 557.67 696.464 561.703 705.078L560.993 705.788C560.412 705.014 553.862 700.432 552.346 698.722C544.99 690.495 536.795 670.556 535.859 659.715C535.795 658.973 536.085 657.94 535.149 657.618C535.246 656.295 535.214 654.778 535.149 653.423C535.149 652.649 535.375 651.681 534.439 651.326C534.827 645.615 536.278 630.935 535.827 626.192C536.859 625.708 536.504 624.321 536.537 623.385C536.569 622.45 536.601 621.514 536.537 620.578L537.246 619.191C537.246 619.191 537.311 616.868 537.246 616.384C537.924 616.223 537.892 615.577 537.956 614.997C538.053 613.835 537.569 610.351 539.699 610.802C540.344 610.931 541.441 615.352 541.441 616.029V634.871C541.441 636.775 541.957 641.195 542.151 643.583L542.118 643.712Z" fill="#FCC146"/>
<path d="M419.999 446.965C421.484 450.837 420.516 456.322 419.903 460.484C414.966 494.813 406.416 524.302 403.932 560.019C403.9 560.503 402.609 562.245 403.254 563.503C405.158 563.116 404.319 560.987 404.642 560.019C407.933 550.436 410.094 548.694 416.515 541.176H417.225C412.998 549.823 410.481 561.438 406.416 569.795C405.674 571.311 404.609 573.376 402.577 572.279C398.705 570.214 399.35 558.954 399.092 555.147C399.996 554.824 399.77 553.824 399.802 553.05C399.867 551.501 399.899 549.694 399.802 548.178L400.512 546.79C400.641 546.629 400.576 543.306 400.512 542.596L401.222 541.209C401.222 541.209 401.254 538.305 401.222 537.724L401.931 536.337C402.19 535.982 402.738 528.109 402.641 527.271L403.351 525.883C404.125 524.818 407.642 501.362 407.545 500.072L408.255 498.684C408.546 498.297 409.707 489.683 409.643 488.908L410.352 487.521C410.352 487.521 410.385 485.876 410.352 485.424L411.062 484.037C411.062 484.037 411.095 482.391 411.062 481.939L411.772 480.552C410.933 472.712 418.677 457.064 418.064 450.546L418.773 449.159C418.935 448.998 418.677 447.643 418.773 447.062H420.161L419.999 446.965Z" fill="#FCC146"/>
<path d="M722.863 340.88C722.67 342.784 722.928 342.139 724.251 342.268C725.09 342.365 726.154 342.268 727.058 342.268L725.67 345.075C724.799 345.397 721.896 346.301 721.089 346.43C718.572 346.817 715.701 345.849 713.281 346.978C710.861 348.108 711.022 351.431 709.635 353.109C706.667 356.787 699.924 353.818 696.729 354.141C694.374 354.399 689.083 356.593 686.244 356.948C675.145 358.303 665.304 347.656 654.109 353.786C646.397 352.431 637.202 354.431 629.652 353.496C628.168 353.302 626.49 351.14 627.878 349.56C629.491 347.688 640.332 348.817 643.623 348.559C649.011 348.14 654.947 346.075 660.368 345.752C669.563 345.204 676.468 349.785 684.856 349.979C687.921 350.043 690.825 348.721 693.858 348.527C697.084 348.333 702.86 349.785 704.925 349.269C705.892 349.043 706.441 345.397 707.183 344.397C709.216 341.752 719.185 341.429 722.831 340.88H722.863Z" fill="#FCC146"/>
<path d="M531.923 739.762C542.022 751.797 554.217 762.799 566.607 772.413C574.189 778.286 584.546 783.867 590.257 792.03C591.095 793.256 591.902 794.256 591.644 795.869C588.321 796.837 586.546 793.385 584.868 792.385C566.252 781.351 542.441 763.767 529.632 745.86C527.858 743.376 521.824 734.18 521.502 731.761C521.179 729.341 522.566 728.954 524.631 729.954C526.083 730.664 530.374 738.02 531.891 739.794L531.923 739.762Z" fill="#FCC146"/>
<path d="M317.398 470.679C323.529 469.55 329.11 468.55 335.015 466.324C343.113 463.291 350.824 458.451 358.89 455.321C360.116 456.644 358.374 457.967 357.535 458.838C343.887 473.131 325.594 477.422 306.203 477.648C305.041 477.648 303.88 477.68 302.718 477.648C300.686 477.584 298.363 477.874 296.427 477.648C292.297 477.132 279.843 473.099 276.617 470.582C274.777 469.13 274.584 467.42 277.584 467.872C281.553 468.872 296.846 472.454 299.911 472.067C299.911 472.067 311.042 472.196 312.462 472.067C314.172 471.905 316.011 470.905 317.334 470.679H317.398Z" fill="#FCC146"/>
<path d="M73.1596 223.665C72.1917 224.697 73.2241 224.923 74.1921 225.052C76.9022 225.407 79.2898 224.278 81.8709 224.278C84.4521 224.278 93.0343 226.536 94.8088 228.182C98.8741 231.924 87.0009 237.538 83.226 237.635C79.4511 237.732 77.3862 233.957 80.1609 231.699C81.4192 230.666 83.3228 231.215 83.6132 229.956C80.29 229.956 76.87 230.247 73.579 230.731C70.2881 231.215 55.8015 236.119 55.7047 230.989C55.6079 224.665 75.3858 213.566 80.9998 214.05C84.6456 214.373 85.6136 217.47 82.9679 219.858C80.9998 221.632 74.2243 222.536 73.1596 223.665ZM71.7722 225.052C70.8043 224.536 69.9009 225.504 70.3849 225.73C71.3528 226.246 72.2562 225.278 71.7722 225.052Z" fill="#FCC146"/>
<path d="M532.343 794.45C532.343 794.45 532.117 791.643 534.472 793.353C534.988 793.74 538.828 803.387 539.893 805.355C549.056 822.229 566.252 840.459 578.384 855.816L577.674 856.526C577.48 856.365 576.093 856.623 575.577 856.526C576.19 854.526 573.673 854.59 574.222 856.107C574.318 856.365 574.835 856.397 574.867 856.526C576.286 860.462 579.9 872.561 573.479 872.561C573.479 869.4 573.576 865.689 572.705 862.624C571.189 857.204 563.284 842.943 559.509 838.006C556.347 833.877 551.185 830.392 547.668 826.133C544.377 822.165 541.828 817.712 539.279 813.26C538.441 811.808 537.182 809.808 536.473 808.388C534.569 804.452 532.246 800.128 532.278 795.837C532.278 795.386 532.278 794.902 532.278 794.45H532.343Z" fill="#FCC146"/>
<path d="M645.397 735.826C645.429 742.666 646.72 751.474 648.204 758.153C648.333 758.766 648.107 759.572 648.204 760.25C649.268 760.056 649.527 759.121 649.591 758.153C649.623 757.54 648.817 756.54 649.01 756.152C649.075 756.056 650.075 756.023 650.301 755.572C650.849 754.41 652.753 748.57 653.43 748.344C656.947 747.215 655.108 752.829 655.14 754.281C655.173 755.41 655.753 756.443 655.85 757.443C653.979 757.12 654.431 757.895 654.463 759.54C654.011 760.153 653.656 772.865 653.785 774.543C654.237 780.286 657.334 787.707 657.27 793.03H655.883C655.883 793.03 653.592 792.45 652.366 791.32C646.687 786.158 648.01 776.931 647.526 776.285L646.816 774.898C646.913 773.607 646.913 771.994 646.816 770.704L647.526 769.316C647.526 769.316 647.655 766.186 647.429 765.928C647.203 765.67 645.623 765.832 644.687 764.831C642.622 762.573 642.267 755.088 641.944 754.668L641.235 753.281C641.396 750.99 641.17 748.603 641.235 746.312C641.267 745.15 641.17 743.989 641.235 742.827C641.493 737.697 642.106 738.73 643.332 735.148L645.429 735.858L645.397 735.826Z" fill="#FCC146"/>
<path d="M113.619 248.089C109.392 247.702 98.6805 251.928 95.2282 250.799C93.744 250.315 93.7763 248.573 94.4216 247.379L100.358 243.894C97.1318 244.959 87.8397 241.12 92.2922 237.538C93.5505 236.506 102.423 238.377 104.036 239.152C105.811 239.99 107.101 241.313 105.94 243.185C112.715 243.152 117.458 240.474 122.943 236.99C124.879 237.345 126.557 244.862 127.492 246.217C128.105 247.089 134.3 247.379 131.396 252.251C130.428 253.864 116.877 255.445 114.651 254.993C111.683 254.413 111.07 250.154 113.586 248.734C116.619 248.444 120.717 247.444 121.975 244.217L114.78 246.798L113.586 248.024L113.619 248.089Z" fill="#FCC146"/>
<path d="M434.647 304.616C434.711 303.389 434.324 301.389 434.969 300.421C437.389 296.872 438.615 304.035 438.744 305.777C439.519 316.327 433.647 331.427 438.841 342.526C439.228 343.333 440.164 342.978 440.196 343.042C440.261 343.171 439.454 344.559 439.648 345.946C441.067 356.174 444.036 362.401 443.681 373.725C443.455 381.695 441.713 390.116 441.229 398.149C435.582 403.441 437.647 390.47 437.389 386.986C438.067 386.792 438.034 386.179 438.099 385.599C438.228 383.921 438.228 381.695 438.099 380.017L438.809 378.63C439.357 377.92 439.357 361.207 438.809 360.497L438.099 359.11C438.744 350.334 434.163 342.332 433.905 333.298C433.905 332.169 434.324 330.395 433.195 329.814C433.324 327.684 433.324 324.974 433.195 322.845C434.227 322.361 433.872 320.973 433.905 320.038C434.001 315.843 434.195 310.907 433.905 306.777C434.808 306.455 434.582 305.454 434.614 304.68L434.647 304.616Z" fill="#FCC146"/>
<path d="M424.194 543.951C424.065 548.113 421.516 553.727 420.806 558.341C416.547 585.185 422.129 602.285 432.582 626.289C434.228 630.096 434.97 629.483 435.389 633.968C433.195 634.355 431.937 631.935 430.937 630.387C423.322 618.675 416.676 602.64 415.869 588.605C415.837 587.83 416.095 586.83 415.16 586.507C415.515 581.442 415.515 574.15 415.16 569.053L415.869 567.665C416.612 566.633 417.902 549.242 422.161 543.241L424.258 541.854C424.258 542.531 424.258 543.241 424.258 543.951H424.194Z" fill="#FCC146"/>
<path d="M380.217 363.207C384.508 368.047 385.25 372.048 383.702 378.565C381.024 378.307 382.734 379.597 382.992 380.662C383.605 383.05 383.96 385.631 382.992 387.986C382.218 389.857 380.508 390.051 380.282 390.825C380.024 391.793 384.153 406.699 384.347 410.313C384.508 413.217 384.573 415.572 383.67 418.314L382.282 419.024C380.282 418.443 377.604 416.992 376.216 415.314C374.829 413.636 373.764 409.087 373.216 408.538V405.731C374.99 404.989 375.733 405.344 376.7 405.022C376.765 406.248 377.604 407.409 378.798 407.829C379.443 406.151 378.314 404.731 378.12 403.634C376.765 396.181 372.151 388.567 371.829 382.017C371.829 381.566 371.829 381.082 371.829 380.63C373.055 380.662 375.184 381.178 376.023 382.017C376.346 382.34 376.604 384.76 378.12 384.824C378.152 383.211 378.088 381.566 378.12 379.952C378.152 378.791 378.088 377.629 378.12 376.468C380.798 376.726 379.056 375.403 378.83 374.371C378.314 372.273 378.185 370.241 378.12 368.079C378.088 366.918 378.12 365.756 378.12 364.595C378.249 364.433 378.443 363.756 378.83 363.207H380.217ZM379.153 408.571V409.28C379.604 409.055 379.604 408.829 379.153 408.571Z" fill="#FCC146"/>
<path d="M535.214 135.81C534.601 136.552 536.408 140.585 532.375 141.746C530.471 142.295 524.373 141.036 521.889 140.94C520.76 140.907 520.05 140.262 519.114 141.682C522.76 142.198 535.343 144.037 535.762 148.78C536.182 153.523 526.567 149.199 524.599 148.78C520.501 147.909 516.049 147.199 511.855 147.683C509.887 147.909 505.466 150.748 504.531 147.134C503.595 143.521 513.048 141.811 515.63 142.036C515.178 140.714 513.113 140.81 512.952 138.778C512.597 134.325 526.954 136.326 527.503 135.777C527.825 135.455 526.761 130.938 529.051 129.97C531.923 128.776 542.602 129.647 540.441 133.712C539.473 135.551 535.472 135.551 535.246 135.842L535.214 135.81Z" fill="#FCC146"/>
<path d="M348.823 205.532C350.953 204.339 351.114 204.403 350.921 206.92C350.404 207.436 345.597 216.696 344.984 218.083C341.209 226.794 339.176 236.893 335.692 245.766C337.208 249.186 339.951 251.767 341.177 255.38C342.403 258.994 344.5 265.027 339.435 264.802C335.756 264.64 336.305 260.317 334.982 257.381C333.143 253.348 328.658 249.573 328.562 245.314C328.562 244.604 328.562 243.927 328.562 243.217C330.594 240.829 331.014 241.442 331.368 241.12C332.401 240.829 332.788 240.055 332.756 239.023C332.917 238.797 332.949 235.119 333.337 233.667C334.595 228.988 345.468 207.371 348.791 205.5L348.823 205.532Z" fill="#FCC146"/>
<path d="M435.357 606.06C433.712 634.42 457.845 663.328 474.784 683.526C476.042 685.01 478.462 686.494 479.333 687.688C480.075 688.753 480.914 691.205 480.72 692.56C464.395 676.879 446.166 658.586 438.164 636.743C437.067 633.742 435.422 629.29 434.679 626.289C433.55 621.804 433.389 618.288 433.292 613.738C433.292 612.803 433.292 611.867 433.292 610.931C433.357 609.415 433.066 607.447 433.292 606.06H435.389H435.357Z" fill="#FCC146"/>
<path d="M289.49 437.189C289.296 437.157 287.006 436.221 286.231 435.931C279.262 433.35 270.777 426.51 270.035 418.605C269.809 416.282 269.486 414.959 272.422 414.959C275.358 414.959 275.907 418.637 277.649 420.766C283.231 427.574 294.071 428.607 302.073 431.252C306.364 432.672 310.849 439.157 305.106 439.77C304.073 439.899 291.329 437.641 289.49 437.189Z" fill="#FCC146"/>
<path d="M279.715 367.402C279.166 368.273 274.423 384.792 273.907 387.083C272.649 392.729 272.584 400.021 270.648 405.086H269.261C268.745 403.731 268.325 401.247 267.938 400.634C267.745 400.343 264.712 399.472 264.163 397.956C263.195 395.213 263.131 391.277 262.97 388.341C262.97 387.76 262.97 387.115 262.26 386.954C262.389 385.05 262.389 382.598 262.26 380.662L262.97 379.275C263.647 378.371 262.582 370.015 267.841 370.918C268.035 376.403 265.68 381.469 266.454 386.954C270.229 388.018 269.455 383.985 270.455 380.824C272.778 373.371 272.552 372.338 278.327 367.402H279.715ZM268.551 391.826L268.196 387.631C266.841 388.631 267.099 390.309 267.164 391.826H268.551Z" fill="#FCC146"/>
<path d="M360.666 354.851C360.375 351.786 358.665 351.495 357.891 350.14C356.6 347.914 351.083 338.654 350.89 337.041C350.599 334.686 353.761 337.331 353.697 334.944C353.6 331.266 349.825 327.362 350.857 323.2C350.954 322.845 354.665 321.587 355.762 318.199C350.696 318.199 349.599 310.81 354.697 311.552C358.117 312.036 356.697 315.295 357.31 317.36C357.601 318.36 358.956 318.812 359.278 320.296C360.02 324.103 357.246 325.2 357.213 327.265C357.213 328.814 360.311 334.589 360.504 337.944C360.633 340.429 359.311 341.719 359.343 343.333C359.343 344.462 361.182 348.172 361.601 350.076C365.473 367.337 356.762 355.883 354.374 357.658L355.439 362.53C352.664 360.013 352.083 357.238 352.309 353.463C354.858 353.238 357.052 354.593 359.278 355.561C359.44 355.625 359.472 356.625 360.666 356.238C360.666 355.787 360.73 355.303 360.666 354.851Z" fill="#FCC146"/>
<path d="M440.939 449.74C440.487 449.74 440.003 449.74 439.551 449.74C438.551 445.9 441.132 441.222 440.939 437.866C441.649 437.673 441.552 437.06 441.649 436.479C442.552 429.284 447.359 416.314 446.521 409.958L447.23 408.571C447.424 408.313 447.295 403.312 447.23 402.279C448.134 401.956 447.908 400.956 447.94 400.182C448.005 398.343 447.134 390.374 450.36 391.116C453.586 391.858 452.393 409.055 452.038 412.313C450.586 425.283 447.134 438.318 440.971 449.74H440.939Z" fill="#FCC146"/>
<path d="M432.55 384.147C433.711 383.889 434.098 384.663 434.647 385.534C435.453 391.729 435.937 402.085 432.711 407.699C431.904 409.087 430.743 409.119 430.549 409.345C430.323 409.668 431.42 414.862 431.098 417.217C430.646 420.508 427.775 428.445 423.483 427.413C423.774 424.638 423.096 421.283 423.419 418.637C423.58 417.314 424.742 417.959 424.935 416.637C425.613 411.313 423.645 405.602 424.193 400.182H425.581C425.581 400.182 427.42 400.827 427.678 400.892C428 403.473 429.356 403.602 429.775 400.892C429.872 400.375 429.872 399.311 429.775 398.795L430.485 397.407C430.646 397.214 430.388 393.987 430.549 392.955C431.033 389.986 432.098 387.147 432.582 384.147H432.55Z" fill="#FCC146"/>
<path d="M482.107 611.641C481.914 611.544 481.591 611.738 481.397 611.641C471.783 605.705 466.298 586.701 463.588 576.086C463.297 574.892 463.394 572.053 463.265 571.892L462.555 570.504C462.813 566.826 462.362 563.019 462.555 559.341L465.007 560.051C468.137 578.119 475.558 594.767 482.107 611.673V611.641Z" fill="#FCC146"/>
<path d="M775.905 360.433C775.84 358.626 777.066 358.142 778.712 358.335C779.325 358.884 786.875 361.336 788.101 361.142C790.198 360.787 794.682 354.98 797.748 353.98C801.426 352.786 805.749 352.496 808.685 355.238C811.428 357.787 809.718 361.981 806.362 361.82C804.975 361.755 803.458 360.562 802.006 360.433C797.489 360.078 795.231 366.111 792.005 367.079C787.294 368.531 782.39 367.337 778.776 364.175C777.679 363.207 776.937 361.4 775.905 360.4V360.433Z" fill="#FCC146"/>
<path d="M438.131 508.364C438.453 502.137 441.035 477.487 445.068 473.776C445.874 473.034 448.004 472.163 448.584 472.776C449.423 473.615 446.39 482.714 446.003 484.52C442.809 499.491 440.938 514.687 440.196 530.013C440.099 531.755 440.905 533.239 438.808 532.82C438.808 532.497 438.873 531.465 438.808 531.432L438.098 530.045C438.518 526.786 437.679 513.881 437.389 509.816C438.066 509.622 438.066 509.009 438.098 508.428L438.131 508.364Z" fill="#FCC146"/>
<path d="M314.624 435.092C314.334 434.317 313.721 434.253 313.915 432.737C315.044 423.283 328.24 418.282 334.176 411.023C335.435 409.506 338.661 403.57 339.048 403.312C342.855 401.053 342.21 406.603 341.694 409.442C341.049 412.991 335.919 418.121 333.112 420.412C330.627 422.444 327.046 423.864 325.078 425.638C322.529 427.929 321.206 432.478 319.141 435.092C318.625 435.737 317.625 435.64 317.431 435.802L314.624 435.092Z" fill="#FCC146"/>
<path d="M422.774 431.607C422.807 433.027 422.903 434.446 422.484 435.834C421.258 439.673 399.318 460.355 394.898 464.065C393.478 465.259 386.671 471.292 385.122 470.357L384.767 467.904C389.8 465.033 393.059 459.419 396.963 455.676C400.867 451.934 406.352 448.546 409.965 444.61C412.45 441.9 415.515 436.189 418.257 433.704C419.58 432.511 420.871 431.414 422.807 431.64L422.774 431.607Z" fill="#FCC146"/>
<path d="M447.907 513.945C447.842 515.817 446.971 517.494 447.197 519.527L446.487 520.914C446.165 521.334 446.616 530.013 446.487 531.755C446.455 532.659 445.777 533.562 445.777 533.82V554.05C445.777 555.566 446.713 569.762 447.165 570.44L445.777 571.15C445.552 570.44 445.455 567.956 445.068 567.665L444.358 566.278C444.358 565.794 442.551 556.921 442.261 556.502L441.551 555.114C441.68 553.34 441.615 551.307 441.551 549.533C441.551 548.758 441.744 547.791 440.841 547.436C441.035 544.661 440.647 541.822 440.841 539.047C441.035 536.272 441.164 532.723 441.551 529.981C442.099 526.012 444.422 517.172 446.423 513.945H447.81H447.907Z" fill="#FCC146"/>
<path d="M500.239 707.208C493.883 699.755 483.043 679.138 481.01 669.555C480.752 668.297 480.074 665.103 481.784 664.651C484.043 664.07 486.043 669.652 486.882 671.362C492.464 682.816 497.884 695.109 501.627 707.208H500.239Z" fill="#FCC146"/>
<path d="M585.385 852.364C589.998 855.849 594.612 865.496 596.903 871.206C599.581 877.982 599.613 880.144 600.065 887.242H598.677C591.16 876.562 589.256 865.754 582.642 855.139V853.042C582.836 852.88 583.158 852.525 583.352 852.332H585.449L585.385 852.364Z" fill="#FCC146"/>
<path d="M572.124 698.141H574.222C578.577 706.24 588.966 721.856 590.967 729.534C591.031 729.76 590.902 730.018 590.967 730.244C590.515 730.244 590.031 730.244 589.579 730.244C589.837 728.986 589.45 728.631 588.192 728.857C587.321 727.728 583.933 725.824 582.255 723.985C578.351 719.726 571.027 707.143 570.737 701.658C570.705 700.948 570.737 700.271 570.737 699.561C571.382 698.883 571.447 698.819 572.124 698.174V698.141Z" fill="#FCC146"/>
<path d="M604.936 712.112C605.808 719.113 608.679 730.502 610.421 737.665C611.454 741.859 613.841 745.408 613.293 749.796C608.615 750.7 605.872 740.891 604.711 737.084C602.291 729.083 602.678 724.243 602.129 716.306L602.839 714.919C603.033 714.693 602.742 712.241 602.839 711.434L604.936 712.144V712.112Z" fill="#FCC146"/>
<path d="M381.606 354.851H380.218C379.96 354.593 378.379 354.205 377.702 353.205C374.088 347.849 374.862 338.751 371.862 332.814C372.862 324.297 377.992 328.749 379.863 334.621C380.831 337.686 383.541 348.204 383.735 351.044C384.025 355.528 382.348 354.044 381.606 354.883V354.851Z" fill="#FCC146"/>
<path d="M484.882 596.961H482.785C480.914 590.863 477.171 580.119 476.526 574.279C476.364 572.989 476.752 567.956 476.526 567.665L475.816 566.278C476.203 560.406 476.687 551.823 476.526 546.048L477.913 545.338C481.107 554.211 481.172 576.022 482.882 586.766C483.43 590.153 484.076 593.638 484.882 596.993V596.961Z" fill="#FCC146"/>
<path d="M259.484 278.772V279.482C255.935 283.805 255.064 283.999 251.096 287.516C244.352 293.484 250.031 292.323 253.451 294.259C256.871 296.195 257.29 301.26 256.387 304.712C256.29 305.1 253.709 308.003 253.515 308.068C250.128 309.165 251.45 302.454 250.579 299.937C249.095 295.549 244.062 296.646 244.062 291.032C244.062 286.548 251.967 280.288 255.838 278.998C257.129 278.578 258.323 278.966 259.484 278.804V278.772Z" fill="#FCC146"/>
<path d="M354.405 165.751C354.534 167.17 354.405 168.429 353.889 169.751C352.243 173.752 342.919 185.109 339.854 189.917C338.402 192.207 339.628 194.079 334.885 193.659C334.918 186.916 338.628 179.882 342.693 174.591C344.113 172.752 352.082 163.428 354.405 165.751Z" fill="#FCC146"/>
<path d="M694.954 1005.88C694.986 1002.62 694.954 999.36 694.954 996.101C698.116 995.617 697.89 996.553 698.341 999.327C700.084 1009.85 700.18 1027.4 699.116 1037.98C698.567 1038.85 698.18 1039.63 697.019 1039.37C696.728 1038.21 696.535 1037.08 696.309 1035.88C696.212 1035.3 696.309 1034.69 695.599 1034.5C695.696 1032.91 695.631 1031.2 695.599 1029.62C695.599 1028.72 695.954 1027.3 694.889 1026.82C695.212 1021.69 694.889 1015.98 694.889 1010.78C694.889 1009.17 694.889 1007.52 694.889 1005.91L694.954 1005.88Z" fill="#FCC146"/>
<path d="M222.509 209.017C226.187 213.082 233.834 220.535 238.222 223.665C239.9 224.891 250.257 229.408 247.643 232.021C242.158 232.505 237.512 227.827 232.995 225.052C232.608 224.149 232.189 222.632 230.898 222.277C230.801 225.084 232.092 224.536 232.995 225.052C233.511 226.214 234.028 227.537 234.544 228.763C236.48 233.247 232.447 232.634 229.93 229.182C226.865 224.988 229.027 223.342 227.736 219.503C226.833 216.76 222.929 214.211 221.154 209.017H222.542H222.509Z" fill="#FCC146"/>
<path d="M509.307 601.865C510.242 605.608 510.759 609.221 511.404 613.029C511.823 615.545 511.565 618.836 514.211 617.9C515.243 624.418 517.663 633.613 517.728 639.84C517.728 640.744 517.857 644.454 516.631 644.389C513.791 644.26 513.243 635.033 512.63 633.065C508.565 619.836 508.694 615.674 507.919 601.833H509.307V601.865Z" fill="#FCC146"/>
<path d="M243.321 201.919C239.868 204.113 227.285 197.918 226.672 198.531C227.059 200.177 229.544 208.21 228.769 208.985C228.64 209.114 226.963 209.049 226.446 208.856C223.155 207.726 219.832 194.014 222.93 193.014C225.027 192.336 242.675 196.918 243.805 199.241C244.127 199.886 243.675 201.693 243.321 201.919Z" fill="#FCC146"/>
<path d="M710.99 1164.26H708.892C708.408 1163.07 708.408 1162 708.118 1161.33C707.795 1160.55 706.924 1160.78 706.408 1158.74C705.795 1156.32 705.763 1147.29 705.408 1146.81L704.698 1145.42C704.795 1143.45 703.311 1140.42 703.311 1137.03C703.311 1135.87 703.311 1134.71 703.311 1133.55C703.408 1133.45 703.02 1132.32 703.762 1132.13C708.699 1130.9 706.924 1139.13 707.634 1141.45C708.118 1143.1 710.635 1142.94 711.409 1146.06C713.087 1152.87 711.603 1157.71 711.022 1164.26H710.99Z" fill="#FCC146"/>
<path d="M706.827 1035.88L706.117 1037.27C705.988 1037.43 706.117 1040.69 706.117 1041.46H704.729C704.729 1041.01 704.729 1040.53 704.729 1040.08C704.762 1039.33 704.891 1038.3 704.02 1037.98C704.149 1036.85 703.697 1025.91 703.31 1025.43L702.6 1024.04C702.858 1020.3 702.665 1015.98 702.6 1012.17C702.6 1011.04 703.019 1009.26 701.89 1008.68C702.116 1005.13 700.503 992.132 706.052 999.973C705.504 1003.75 706.633 1007.52 706.794 1011.1C707.149 1019.23 706.214 1027.85 706.794 1035.91L706.827 1035.88Z" fill="#FCC146"/>
<path d="M335.563 423.928C337.95 426.155 321.044 447.449 317.108 449.127C314.043 450.417 314.236 447.449 315.301 445.158C316.592 442.287 329.981 426.574 332.788 424.961C333.692 424.412 334.176 423.573 335.595 423.961L335.563 423.928Z" fill="#FCC146"/>
<path d="M686.565 947.963C690.049 964.514 691.533 978.097 691.437 994.714H690.049C688.759 987.809 688.017 983.098 687.242 975.871C687.081 974.323 686.661 972.806 686.532 971.677C685.823 964.127 686.113 955.029 685.145 947.963H686.532H686.565Z" fill="#FCC146"/>
<path d="M252.516 183.883L251.806 184.593C251.193 183.528 246.483 184.077 244.805 183.593C243.127 183.109 232.19 177.398 230.867 176.237V174.139C231.77 174.107 232.738 174.075 233.674 174.139C234.803 174.204 235.932 175.075 237.158 174.817L235.771 172.042C241.127 172.3 248.741 175.624 251.516 180.366C252.193 181.528 252.387 183.754 252.516 183.883Z" fill="#FCC146"/>
<path d="M399.06 282.966C400.512 282.837 402.448 282.902 403.932 282.966C405.771 283.063 413.934 283.321 410.901 286.096C408.32 288.419 405.351 286.419 402.899 286.451C397.318 286.58 391.865 289.322 388.251 293.452C387.638 294.162 387.542 295.453 386.993 296.033C385.122 297.969 381.024 294.807 384.702 289.935C387.767 285.87 393.994 283.45 399.028 282.966H399.06Z" fill="#FCC146"/>
<path d="M670.53 878.175H668.433C667.82 877.014 666.723 876.949 666.303 876.272C664.69 873.529 657.882 855.171 659.334 853.751C663.561 852.364 666.303 859.978 667.529 863.334C669.53 868.722 669.723 872.658 670.497 878.175H670.53Z" fill="#FCC146"/>
<path d="M510.726 155.975C511.694 157.233 508.758 158.265 507.984 158.459C504.822 159.201 500.66 158.943 497.304 159.62C493.723 160.33 488.754 163.17 485.786 163.492C481.656 163.944 484.431 159.879 486.367 158.427C489.883 155.717 500.563 153.297 504.854 153.813C505.402 153.877 510.565 155.717 510.758 155.942L510.726 155.975Z" fill="#FCC146"/>
<path d="M446.52 384.857H445.132C445.326 381.307 445.229 377.274 445.132 373.693C444.906 363.304 443.422 353.044 440.938 342.978C442.713 341.171 443.551 343.171 444.358 344.817C449.23 354.851 447.972 373.983 446.52 384.857Z" fill="#FCC146"/>
<path d="M604.227 801.419C597.193 808.356 596.516 789.514 606.679 796.547C608.776 797.999 618.165 809.227 619.036 811.389C619.326 812.066 620.165 813.55 619.23 814.002C617.391 813.131 615.487 811.55 613.971 810.195C611.067 807.549 609.163 803.742 606.324 801.451C605.872 801.096 605.743 799.741 604.582 800.064C603.84 799.999 604.42 801.29 604.227 801.451V801.419Z" fill="#FCC146"/>
<path d="M439.52 470.679C440.036 469.905 444.133 455.612 444.779 453.257C445.295 451.45 446.263 438.221 449.973 440.673C451.844 441.932 448.747 452.902 448.07 455.16C446.101 461.548 443.52 465.743 440.197 471.389L439.487 470.679H439.52Z" fill="#FCC146"/>
<path d="M352.309 368.789L353.019 370.176C352.761 373.209 354.632 377.307 355.051 380.372C355.438 383.179 357.148 397.407 356.181 398.795C355.309 400.053 353.567 399.666 353.148 398.311C352.18 395.278 352.922 387.405 352.309 383.824C351.373 378.275 349.341 375.306 350.212 368.434C350.373 367.143 351.115 367.305 351.664 366.692H352.373C352.47 367.208 352.212 368.595 352.373 368.789H352.309Z" fill="#FCC146"/>
<path d="M290.878 439.286C297.621 441.061 301.783 445.416 307.849 447.804C309.398 448.417 313.689 448.836 313.915 449.062C314.044 449.223 313.818 450.579 313.915 451.159C305.203 452.353 296.783 447.868 290.007 442.803C289.039 442.093 288.975 440.964 287.394 439.996C286.877 437.608 289.104 438.834 290.878 439.286Z" fill="#FCC146"/>
<path d="M338.339 375.08C338.339 375.435 337.984 375.79 337.629 375.79C334.112 375.79 332.434 373.951 330.337 371.564C325.723 366.272 325.852 365.208 323.336 359.045C322.755 357.593 319.819 355.657 321.561 354.496C326.24 351.399 327.917 362.272 328.95 363.885C329.66 364.982 333.951 370.951 334.822 371.983C335.822 373.177 337.242 373.241 338.339 375.113V375.08Z" fill="#FCC146"/>
<path d="M349.502 153.877C352.051 155.717 343.275 168.009 341.533 169.267C340.597 169.977 339.306 170.332 338.306 169.622C334.435 166.848 346.05 151.393 349.502 153.877Z" fill="#FCC146"/>
<path d="M590.257 333.911C590.935 333.847 591.677 333.976 592.355 333.911C592.645 334.331 593.613 334.266 593.774 335.654C594.355 340.235 583.514 349.592 581.998 343.171C581.256 340.042 587.225 334.234 590.257 333.879V333.911Z" fill="#FCC146"/>
<path d="M704.73 887.242C704.053 884.338 702.665 872.077 705.924 871.303C710.183 870.303 709.796 877.272 709.602 879.918C709.344 883.305 707.989 886.241 706.827 889.339C705.15 889.79 705.569 888.242 704.73 887.242Z" fill="#FCC146"/>
<path d="M336.951 202.016C337.532 203.209 335.725 208.307 337.306 208.275C337.629 208.275 343.081 203.435 342.533 207.242C342.113 210.146 337.564 215.954 334.144 215.276C333.886 213.018 334.047 211.437 335.532 209.694C329.369 210.469 331.499 201.015 336.919 202.016H336.951Z" fill="#FCC146"/>
<path d="M316.011 469.292C316.495 471.744 314.301 470.389 312.527 470.002C311.591 466.194 308.752 457.838 309.01 454.289C309.139 452.45 310.946 452.74 312.204 451.901C313.495 451.643 315.528 467.808 316.011 469.324V469.292Z" fill="#FCC146"/>
<path d="M255.936 310.23C257.614 311.391 253.549 324.587 252.548 325.2C246.321 329.007 249.967 312.23 252.323 310.843C253.065 310.391 255.355 309.81 255.968 310.23H255.936Z" fill="#FCC146"/>
<path d="M246.934 252.961C248.321 246.25 252.967 239.958 260.195 239.023C261.259 239.99 253.548 247.863 252.613 249.25C250.87 251.896 252.354 254.671 247.644 254.38L246.934 252.993V252.961Z" fill="#FCC146"/>
<path d="M258.775 353.463C259.452 354.076 260.033 368.66 259.84 370.918C254.58 375.242 254.935 362.659 255.29 359.4C255.419 358.303 257.065 351.915 258.775 353.463Z" fill="#FCC146"/>
<path d="M745.19 342.978C747.997 343.72 753.837 347.107 756.321 348.947C761.032 352.528 760.354 358.239 754.288 354.464C751.352 352.625 750.804 349.785 749.062 347.817C747.707 346.269 746.706 345.526 745.19 343.687V342.978Z" fill="#FCC146"/>
<path d="M343.403 303.002C341.274 301.26 339.79 295.775 342.855 294.13C345.597 297.647 346.791 301.583 350.211 304.874C351.018 305.648 352.824 305.842 353.341 306.648C355.051 309.391 351.663 311.327 349.437 309.842C348.469 309.197 348.501 306.132 347.404 304.874C346.307 303.615 344.436 303.841 343.371 302.97L343.403 303.002Z" fill="#FCC146"/>
<path d="M374.378 313.746C377.701 312.682 377.96 317.263 378.089 319.618C378.218 321.683 378.573 325.265 375.637 325.555C371.184 326.007 371.765 314.585 374.378 313.746Z" fill="#FCC146"/>
<path d="M724.251 1150.32C724.444 1149.29 724.186 1148.26 725.316 1147.55C729.252 1146.58 727.671 1162.23 726.993 1162.84C726.864 1162.97 724.348 1163 724.251 1162.91C723.896 1162.55 723.638 1154.49 723.541 1153.13C724.67 1152.65 724.09 1151.19 724.251 1150.32Z" fill="#FCC146"/>
<path d="M256.678 340.203C256 343.268 256.678 349.785 255.871 352.302C255.548 353.367 254.645 353.722 253.613 353.399C250.515 352.463 250.676 338.364 256.678 340.203Z" fill="#FCC146"/>
<path d="M339.049 376.468C341.113 375.919 340.791 376.952 341.597 377.758C342.759 378.92 352.019 387.438 347.76 388.341C346.695 388.567 340.371 382.856 339.726 381.727C339.113 380.662 339.242 380.243 339.049 379.275C338.887 378.468 339.21 377.339 339.049 376.468Z" fill="#FCC146"/>
<path d="M693.567 842.588L692.179 841.878C691.921 839.071 690.534 829.779 691.824 827.908C693.986 824.746 695.567 830.231 695.599 832.393C695.631 835.748 694.276 839.491 693.567 842.588Z" fill="#FCC146"/>
<path d="M338.339 282.289C341.533 283.386 350.632 292.581 342.533 293.452C341.178 289.193 337.113 287.322 336.242 282.289C336.855 282.418 337.855 282.127 338.339 282.289Z" fill="#FCC146"/>
<path d="M678.209 795.837C682.984 800.548 682.726 800.354 683.791 807.001H682.404C681.178 805.162 677.08 800.29 675.435 798.612V795.805C675.628 795.74 675.886 795.837 676.144 795.805C676.822 795.708 677.564 795.87 678.242 795.805L678.209 795.837Z" fill="#FCC146"/>
<path d="M240.642 188.077C243.191 191.465 226.511 190.788 227.382 186.335C227.898 183.593 239.803 186.98 240.642 188.077Z" fill="#FCC146"/>
<path d="M620.973 346.462C621.231 351.076 614.907 351.108 611.519 350.689C607.615 350.205 608.777 346.462 610.842 346.462H620.973Z" fill="#FCC146"/>
<path d="M264.356 160.847V162.944C262.001 165.331 261.033 167.106 256.806 165.267C255.709 164.783 256.096 163.75 255.967 163.653V162.266C256.29 162.008 256.032 159.782 258.452 159.459C259.904 159.266 262.807 160.363 264.356 160.879V160.847Z" fill="#FCC146"/>
<path d="M696.342 1072.15C693.89 1073.89 689.599 1061.89 694.019 1061.08C698.439 1060.27 697.213 1069.82 696.342 1072.15Z" fill="#FCC146"/>
<path d="M718.668 965.418H716.57C716.312 961.901 715.312 956.384 715.893 953.222C716.345 950.737 718.926 950.737 719.377 953.222C719.958 956.545 718.99 961.869 718.668 965.418Z" fill="#FCC146"/>
<path d="M396.253 182.496C395.866 182.431 394.962 182.625 394.866 182.496C394.608 182.238 395.608 180.592 393.478 181.108C392.091 176.914 389.348 173.559 389.994 168.913C389.994 168.3 391.413 168.461 391.736 168.59C393.543 169.364 395.64 180.011 396.285 182.528L396.253 182.496Z" fill="#FCC146"/>
<path d="M625.168 718.403C625.49 721.759 625.555 728.728 625.2 732.051C624.845 735.374 622.716 735.406 622.328 732.051C621.877 727.857 622.586 722.469 623.748 718.403H625.135H625.168Z" fill="#FCC146"/>
<path d="M252.516 172.72C252.323 172.655 251.613 170.977 250.419 171.332C250.451 170.881 250.419 170.397 250.419 169.945C250.419 169.493 250.419 169.009 250.419 168.558C251.032 168.138 250.774 167.041 252.774 167.17C261.744 167.654 259.872 175.559 252.516 172.752V172.72Z" fill="#FCC146"/>
<path d="M555.896 115.612C557.122 115.451 557.477 115.515 558.154 116.58C552.669 130.744 545.958 117.064 555.896 115.612Z" fill="#FCC146"/>
<path d="M251.322 261.575C254.291 258.865 256.84 259.672 255.646 264.156C253.742 271.351 246.515 265.931 251.322 261.575Z" fill="#FCC146"/>
<path d="M290.2 354.851C290.749 357.561 292.523 365.401 287.845 363.853C285.457 363.078 286.522 354.561 290.2 354.851Z" fill="#FCC146"/>
<path d="M297.169 354.851C297.33 353.786 296.943 352.302 297.169 351.366C297.363 350.56 299.556 346.623 300.331 346.494C303.686 345.817 301.686 356.722 297.169 354.851Z" fill="#FCC146"/>
<path d="M538.698 124.646C539.763 122.936 546.861 124.614 546.313 127.001C545.603 130.067 536.311 128.518 538.698 124.646Z" fill="#FCC146"/>
<path d="M254.516 336.622C253.838 337.041 252.064 336.557 251.128 336.718C250.999 335.105 251.225 330.395 252.935 329.814C257.742 328.136 254.903 336.396 254.516 336.622Z" fill="#FCC146"/>
<path d="M254.419 270.512C260.872 269.19 255.065 279.095 251.774 274.997C250.128 272.964 252.387 270.932 254.419 270.512Z" fill="#FCC146"/>
<path d="M646.784 836.296C642.364 836.619 638.299 828.973 644.332 830.005C646.978 830.457 646.913 834.135 646.784 836.296Z" fill="#FCC146"/>
<path d="M713.087 1088.89C710.634 1090.93 707.989 1082.08 710.667 1081.21C714.119 1080.12 714.054 1088.09 713.087 1088.89Z" fill="#FCC146"/>
<path d="M343.92 274.61C342.339 274.836 339.791 274.9 339.726 272.835C339.726 272.513 341.146 272.48 341.146 272.19C341.049 271.222 339.016 268.706 339.758 266.931C343.082 265.673 344.792 273.771 343.953 274.61H343.92Z" fill="#FCC146"/>
<path d="M311.817 347.882C312.623 350.527 309.945 355.916 306.912 353.818C304.105 351.883 311.075 347.011 311.817 347.882Z" fill="#FCC146"/>
<path d="M706.827 1076.34C706.827 1076.34 705.827 1076.5 705.408 1075.89C704.472 1074.57 704.795 1072.05 704.73 1070.47C708.311 1068.53 707.247 1074.21 707.537 1076.34H706.827Z" fill="#FCC146"/>
<path d="M294.362 355.528C294.168 353.496 294.491 351.302 294.362 349.237C297.008 349.011 296.395 349.205 296.459 351.334C296.459 352.399 296.588 353.851 296.459 354.819C296.459 355.012 295.878 355.27 295.749 355.528H294.362Z" fill="#FCC146"/>
<path d="M336.241 280.869C336.789 278.32 337.564 276.255 340.758 276.675C343.145 276.965 339.532 278.578 339.338 278.74C338.822 279.191 338.532 279.966 338.306 280.159C337.757 280.611 336.918 280.74 336.208 280.869H336.241Z" fill="#FCC146"/>
<path d="M355.794 365.304L356.149 363.207C359.053 366.272 356.02 365.788 355.794 365.982V365.272V365.304Z" fill="#FCC146"/>
</svg>